<svg xmlns="http://www.w3.org/2000/svg" width="440" height="520" viewBox="0 0 440 520">
<rect width="440" height="520" fill="#0F172A"/>
<text x="220" y="30" text-anchor="middle" font-family="Raleway, Inter, 'Helvetica Neue', Arial, sans-serif" font-size="15" font-weight="700" fill="#F8FAFC" letter-spacing="1">CAS TIER LADDER</text>
<line x1="76" y1="52" x2="76" y2="484" stroke="#94A3B8" stroke-width="1"/>
<line x1="70" y1="484" x2="76" y2="484" stroke="#94A3B8" stroke-width="1"/>
<text x="66" y="488" text-anchor="end" font-family="Raleway, Inter, 'Helvetica Neue', Arial, sans-serif" font-size="10.5" fill="#94A3B8">0.00</text>
<line x1="70" y1="398" x2="76" y2="398" stroke="#94A3B8" stroke-width="1"/>
<text x="66" y="402" text-anchor="end" font-family="Raleway, Inter, 'Helvetica Neue', Arial, sans-serif" font-size="10.5" fill="#94A3B8">0.20</text>
<line x1="70" y1="268" x2="76" y2="268" stroke="#94A3B8" stroke-width="1"/>
<text x="66" y="272" text-anchor="end" font-family="Raleway, Inter, 'Helvetica Neue', Arial, sans-serif" font-size="10.5" fill="#94A3B8">0.50</text>
<line x1="70" y1="160" x2="76" y2="160" stroke="#94A3B8" stroke-width="1"/>
<text x="66" y="164" text-anchor="end" font-family="Raleway, Inter, 'Helvetica Neue', Arial, sans-serif" font-size="10.5" fill="#94A3B8">0.75</text>
<line x1="70" y1="96" x2="76" y2="96" stroke="#94A3B8" stroke-width="1"/>
<text x="66" y="100" text-anchor="end" font-family="Raleway, Inter, 'Helvetica Neue', Arial, sans-serif" font-size="10.5" fill="#94A3B8">0.90</text>
<line x1="70" y1="52" x2="76" y2="52" stroke="#94A3B8" stroke-width="1"/>
<text x="66" y="56" text-anchor="end" font-family="Raleway, Inter, 'Helvetica Neue', Arial, sans-serif" font-size="10.5" fill="#94A3B8">1.00</text>
<rect x="92" y="53" width="308" height="41" rx="4" fill="#4ADE80" opacity="0.85"/>
<text x="104" y="79" font-family="Raleway, Inter, 'Helvetica Neue', Arial, sans-serif" font-size="13" font-weight="700" fill="#0F172A">Verified Trust</text>
<rect x="356" y="61" width="36" height="26" rx="5" fill="#0F172A" opacity="0.6"/>
<text x="374" y="78" text-anchor="middle" font-family="Raleway, Inter, 'Helvetica Neue', Arial, sans-serif" font-size="11" font-weight="800" fill="#F8FAFC">L2</text>
<rect x="92" y="97" width="308" height="61" rx="4" fill="#14B8A6" opacity="0.85"/>
<text x="104" y="133" font-family="Raleway, Inter, 'Helvetica Neue', Arial, sans-serif" font-size="13" font-weight="700" fill="#0F172A">Conditional Trust</text>
<rect x="356" y="115" width="36" height="26" rx="5" fill="#0F172A" opacity="0.6"/>
<text x="374" y="132" text-anchor="middle" font-family="Raleway, Inter, 'Helvetica Neue', Arial, sans-serif" font-size="11" font-weight="800" fill="#F8FAFC">L1</text>
<rect x="92" y="161" width="308" height="105" rx="4" fill="#FACC15" opacity="0.85"/>
<text x="104" y="219" font-family="Raleway, Inter, 'Helvetica Neue', Arial, sans-serif" font-size="13" font-weight="700" fill="#0F172A">Review Required</text>
<rect x="92" y="269" width="308" height="127" rx="4" fill="#FB923C" opacity="0.85"/>
<text x="104" y="338" font-family="Raleway, Inter, 'Helvetica Neue', Arial, sans-serif" font-size="13" font-weight="700" fill="#0F172A">Denied / Degraded</text>
<rect x="92" y="399" width="308" height="83" rx="4" fill="#F87171" opacity="0.85"/>
<text x="104" y="446" font-family="Raleway, Inter, 'Helvetica Neue', Arial, sans-serif" font-size="13" font-weight="700" fill="#0F172A">Hard Denial</text>
<text x="220" y="506" text-anchor="middle" font-family="Raleway, Inter, 'Helvetica Neue', Arial, sans-serif" font-size="10" fill="#94A3B8">CAS = F_IAF × F_NOCF × ECF</text>
</svg>