<?xml version="1.0" encoding="utf-8" standalone="no"?>
<!DOCTYPE svg PUBLIC "-//W3C//DTD SVG 1.1//EN"
  "http://www.w3.org/Graphics/SVG/1.1/DTD/svg11.dtd">
<svg xmlns:xlink="http://www.w3.org/1999/xlink" width="600.3pt" height="413.568pt" viewBox="0 0 600.3 413.568" xmlns="http://www.w3.org/2000/svg" version="1.1">
 <metadata>
  <rdf:RDF xmlns:dc="http://purl.org/dc/elements/1.1/" xmlns:cc="http://creativecommons.org/ns#" xmlns:rdf="http://www.w3.org/1999/02/22-rdf-syntax-ns#">
   <cc:Work>
    <dc:type rdf:resource="http://purl.org/dc/dcmitype/StillImage"/>
    <dc:date>2026-06-13T14:06:51.145173</dc:date>
    <dc:format>image/svg+xml</dc:format>
    <dc:creator>
     <cc:Agent>
      <dc:title>Matplotlib v3.11.0, https://matplotlib.org/</dc:title>
     </cc:Agent>
    </dc:creator>
   </cc:Work>
  </rdf:RDF>
 </metadata>
 <defs>
  <style type="text/css">*{stroke-linejoin: round; stroke-linecap: butt}</style>
 </defs>
 <g id="figure_1">
  <g id="patch_1">
   <path d="M 0 413.568 
L 600.3 413.568 
L 600.3 0 
L 0 0 
z
" style="fill: #0f172a"/>
  </g>
  <g id="axes_1">
   <g id="patch_2">
    <path d="M 23.94 131.94 
L 576.36 131.94 
Q 579.15 131.94 579.15 129.168 
L 579.15 37.692 
Q 579.15 34.92 576.36 34.92 
L 23.94 34.92 
Q 21.15 34.92 21.15 37.692 
L 21.15 129.168 
Q 21.15 131.94 23.94 131.94 
z
" clip-path="url(#p66d8789649)" style="fill: #334155"/>
   </g>
   <g id="patch_3">
    <path d="M 23.94 227.2968 
L 576.36 227.2968 
Q 579.15 227.2968 579.15 224.5248 
L 579.15 141.3648 
Q 579.15 138.5928 576.36 138.5928 
L 23.94 138.5928 
Q 21.15 138.5928 21.15 141.3648 
L 21.15 224.5248 
Q 21.15 227.2968 23.94 227.2968 
z
" clip-path="url(#p66d8789649)" style="fill: #334155"/>
   </g>
   <g id="patch_4">
    <path d="M 23.94 317.664 
L 576.36 317.664 
Q 579.15 317.664 579.15 314.892 
L 579.15 236.1672 
Q 579.15 233.3952 576.36 233.3952 
L 23.94 233.3952 
Q 21.15 233.3952 21.15 236.1672 
L 21.15 314.892 
Q 21.15 317.664 23.94 317.664 
z
" clip-path="url(#p66d8789649)" style="fill: #334155"/>
   </g>
   <g id="patch_5">
    <path d="M 23.94 393.6168 
L 576.36 393.6168 
Q 579.15 393.6168 579.15 390.8448 
L 579.15 327.0888 
Q 579.15 324.3168 576.36 324.3168 
L 23.94 324.3168 
Q 21.15 324.3168 21.15 327.0888 
L 21.15 390.8448 
Q 21.15 393.6168 23.94 393.6168 
z
" clip-path="url(#p66d8789649)" style="fill: #1e3a5f; stroke: #14b8a6; stroke-width: 1.2; stroke-linejoin: miter"/>
   </g>
   <g id="text_1">
    <!-- §2.4.1 — IMPERSONATION LATENCY: FORMAL MEASUREMENT -->
    <g style="fill: #f8fafc" transform="translate(112.398906 29.417422) scale(0.11 -0.11)">
     <defs>
      <path id="DejaVuSans-Bold-69" d="M 2766 4569 
L 2766 3859 
Q 2456 3981 2209 4042 
Q 1963 4103 1784 4103 
Q 1550 4103 1431 4026 
Q 1313 3950 1313 3803 
Q 1313 3594 1900 3347 
Q 1981 3313 2022 3297 
Q 2678 3019 2926 2748 
Q 3175 2478 3175 2088 
Q 3175 1722 2998 1473 
Q 2822 1225 2456 1075 
Q 2697 947 2814 770 
Q 2931 594 2931 366 
Q 2931 -88 2553 -348 
Q 2175 -609 1509 -609 
Q 1244 -609 961 -564 
Q 678 -519 359 -428 
L 359 313 
Q 719 184 1003 117 
Q 1288 50 1466 50 
Q 1669 50 1791 128 
Q 1913 206 1913 331 
Q 1913 550 1350 781 
Q 1238 825 1178 850 
Q 544 1122 294 1401 
Q 44 1681 44 2088 
Q 44 2413 217 2653 
Q 391 2894 744 3053 
Q 509 3213 407 3386 
Q 306 3559 306 3794 
Q 306 4244 664 4497 
Q 1022 4750 1650 4750 
Q 1913 4750 2194 4704 
Q 2475 4659 2766 4569 
z
M 1356 2675 
Q 1144 2588 1039 2469 
Q 934 2350 934 2194 
Q 934 1984 1126 1831 
Q 1319 1678 1888 1472 
Q 2091 1544 2200 1667 
Q 2309 1791 2309 1953 
Q 2309 2163 2093 2328 
Q 1878 2494 1356 2675 
z
" transform="scale(0.015625)"/>
      <path id="DejaVuSans-Bold-15" d="M 1844 884 
L 3897 884 
L 3897 0 
L 506 0 
L 506 884 
L 2209 2388 
Q 2438 2594 2547 2791 
Q 2656 2988 2656 3200 
Q 2656 3528 2436 3728 
Q 2216 3928 1850 3928 
Q 1569 3928 1234 3808 
Q 900 3688 519 3450 
L 519 4475 
Q 925 4609 1322 4679 
Q 1719 4750 2100 4750 
Q 2938 4750 3402 4381 
Q 3866 4013 3866 3353 
Q 3866 2972 3669 2642 
Q 3472 2313 2841 1759 
L 1844 884 
z
" transform="scale(0.015625)"/>
      <path id="DejaVuSans-Bold-11" d="M 653 1209 
L 1778 1209 
L 1778 0 
L 653 0 
L 653 1209 
z
" transform="scale(0.015625)"/>
      <path id="DejaVuSans-Bold-17" d="M 2356 3675 
L 1038 1722 
L 2356 1722 
L 2356 3675 
z
M 2156 4666 
L 3494 4666 
L 3494 1722 
L 4159 1722 
L 4159 850 
L 3494 850 
L 3494 0 
L 2356 0 
L 2356 850 
L 288 850 
L 288 1881 
L 2156 4666 
z
" transform="scale(0.015625)"/>
      <path id="DejaVuSans-Bold-14" d="M 750 831 
L 1813 831 
L 1813 3847 
L 722 3622 
L 722 4441 
L 1806 4666 
L 2950 4666 
L 2950 831 
L 4013 831 
L 4013 0 
L 750 0 
L 750 831 
z
" transform="scale(0.015625)"/>
      <path id="DejaVuSans-Bold-3" transform="scale(0.015625)"/>
      <path id="DejaVuSans-Bold-af6" d="M 344 2156 
L 6056 2156 
L 6056 1350 
L 344 1350 
L 344 2156 
z
" transform="scale(0.015625)"/>
      <path id="DejaVuSans-Bold-2c" d="M 588 4666 
L 1791 4666 
L 1791 0 
L 588 0 
L 588 4666 
z
" transform="scale(0.015625)"/>
      <path id="DejaVuSans-Bold-30" d="M 588 4666 
L 2119 4666 
L 3181 2169 
L 4250 4666 
L 5778 4666 
L 5778 0 
L 4641 0 
L 4641 3413 
L 3566 897 
L 2803 897 
L 1728 3413 
L 1728 0 
L 588 0 
L 588 4666 
z
" transform="scale(0.015625)"/>
      <path id="DejaVuSans-Bold-33" d="M 588 4666 
L 2584 4666 
Q 3475 4666 3951 4270 
Q 4428 3875 4428 3144 
Q 4428 2409 3951 2014 
Q 3475 1619 2584 1619 
L 1791 1619 
L 1791 0 
L 588 0 
L 588 4666 
z
M 1791 3794 
L 1791 2491 
L 2456 2491 
Q 2806 2491 2997 2661 
Q 3188 2831 3188 3144 
Q 3188 3456 2997 3625 
Q 2806 3794 2456 3794 
L 1791 3794 
z
" transform="scale(0.015625)"/>
      <path id="DejaVuSans-Bold-28" d="M 588 4666 
L 3834 4666 
L 3834 3756 
L 1791 3756 
L 1791 2888 
L 3713 2888 
L 3713 1978 
L 1791 1978 
L 1791 909 
L 3903 909 
L 3903 0 
L 588 0 
L 588 4666 
z
" transform="scale(0.015625)"/>
      <path id="DejaVuSans-Bold-35" d="M 2297 2597 
Q 2675 2597 2839 2737 
Q 3003 2878 3003 3200 
Q 3003 3519 2839 3656 
Q 2675 3794 2297 3794 
L 1791 3794 
L 1791 2597 
L 2297 2597 
z
M 1791 1766 
L 1791 0 
L 588 0 
L 588 4666 
L 2425 4666 
Q 3347 4666 3776 4356 
Q 4206 4047 4206 3378 
Q 4206 2916 3982 2619 
Q 3759 2322 3309 2181 
Q 3556 2125 3751 1926 
Q 3947 1728 4147 1325 
L 4800 0 
L 3519 0 
L 2950 1159 
Q 2778 1509 2601 1637 
Q 2425 1766 2131 1766 
L 1791 1766 
z
" transform="scale(0.015625)"/>
      <path id="DejaVuSans-Bold-36" d="M 3834 4519 
L 3834 3531 
Q 3450 3703 3084 3790 
Q 2719 3878 2394 3878 
Q 1963 3878 1756 3759 
Q 1550 3641 1550 3391 
Q 1550 3203 1689 3098 
Q 1828 2994 2194 2919 
L 2706 2816 
Q 3484 2659 3812 2340 
Q 4141 2022 4141 1434 
Q 4141 663 3683 286 
Q 3225 -91 2284 -91 
Q 1841 -91 1394 -6 
Q 947 78 500 244 
L 500 1259 
Q 947 1022 1364 901 
Q 1781 781 2169 781 
Q 2563 781 2772 912 
Q 2981 1044 2981 1288 
Q 2981 1506 2839 1625 
Q 2697 1744 2272 1838 
L 1806 1941 
Q 1106 2091 782 2419 
Q 459 2747 459 3303 
Q 459 4000 909 4375 
Q 1359 4750 2203 4750 
Q 2588 4750 2994 4692 
Q 3400 4634 3834 4519 
z
" transform="scale(0.015625)"/>
      <path id="DejaVuSans-Bold-32" d="M 2719 3878 
Q 2169 3878 1866 3472 
Q 1563 3066 1563 2328 
Q 1563 1594 1866 1187 
Q 2169 781 2719 781 
Q 3272 781 3575 1187 
Q 3878 1594 3878 2328 
Q 3878 3066 3575 3472 
Q 3272 3878 2719 3878 
z
M 2719 4750 
Q 3844 4750 4481 4106 
Q 5119 3463 5119 2328 
Q 5119 1197 4481 553 
Q 3844 -91 2719 -91 
Q 1597 -91 958 553 
Q 319 1197 319 2328 
Q 319 3463 958 4106 
Q 1597 4750 2719 4750 
z
" transform="scale(0.015625)"/>
      <path id="DejaVuSans-Bold-31" d="M 588 4666 
L 1931 4666 
L 3628 1466 
L 3628 4666 
L 4769 4666 
L 4769 0 
L 3425 0 
L 1728 3200 
L 1728 0 
L 588 0 
L 588 4666 
z
" transform="scale(0.015625)"/>
      <path id="DejaVuSans-Bold-24" d="M 3419 850 
L 1538 850 
L 1241 0 
L 31 0 
L 1759 4666 
L 3194 4666 
L 4922 0 
L 3713 0 
L 3419 850 
z
M 1838 1716 
L 3116 1716 
L 2478 3572 
L 1838 1716 
z
" transform="scale(0.015625)"/>
      <path id="DejaVuSans-Bold-37" d="M 31 4666 
L 4331 4666 
L 4331 3756 
L 2784 3756 
L 2784 0 
L 1581 0 
L 1581 3756 
L 31 3756 
L 31 4666 
z
" transform="scale(0.015625)"/>
      <path id="DejaVuSans-Bold-2f" d="M 588 4666 
L 1791 4666 
L 1791 909 
L 3903 909 
L 3903 0 
L 588 0 
L 588 4666 
z
" transform="scale(0.015625)"/>
      <path id="DejaVuSans-Bold-26" d="M 4288 256 
Q 3956 84 3597 -3 
Q 3238 -91 2847 -91 
Q 1681 -91 1000 561 
Q 319 1213 319 2328 
Q 319 3447 1000 4098 
Q 1681 4750 2847 4750 
Q 3238 4750 3597 4662 
Q 3956 4575 4288 4403 
L 4288 3438 
Q 3953 3666 3628 3772 
Q 3303 3878 2944 3878 
Q 2300 3878 1931 3465 
Q 1563 3053 1563 2328 
Q 1563 1606 1931 1193 
Q 2300 781 2944 781 
Q 3303 781 3628 887 
Q 3953 994 4288 1222 
L 4288 256 
z
" transform="scale(0.015625)"/>
      <path id="DejaVuSans-Bold-3c" d="M -63 4666 
L 1253 4666 
L 2316 3003 
L 3378 4666 
L 4697 4666 
L 2919 1966 
L 2919 0 
L 1716 0 
L 1716 1966 
L -63 4666 
z
" transform="scale(0.015625)"/>
      <path id="DejaVuSans-Bold-1d" d="M 716 3500 
L 1844 3500 
L 1844 2291 
L 716 2291 
L 716 3500 
z
M 716 1209 
L 1844 1209 
L 1844 0 
L 716 0 
L 716 1209 
z
" transform="scale(0.015625)"/>
      <path id="DejaVuSans-Bold-29" d="M 588 4666 
L 3834 4666 
L 3834 3756 
L 1791 3756 
L 1791 2888 
L 3713 2888 
L 3713 1978 
L 1791 1978 
L 1791 0 
L 588 0 
L 588 4666 
z
" transform="scale(0.015625)"/>
      <path id="DejaVuSans-Bold-38" d="M 588 4666 
L 1791 4666 
L 1791 1869 
Q 1791 1291 1980 1042 
Q 2169 794 2597 794 
Q 3028 794 3217 1042 
Q 3406 1291 3406 1869 
L 3406 4666 
L 4609 4666 
L 4609 1869 
Q 4609 878 4112 393 
Q 3616 -91 2597 -91 
Q 1581 -91 1084 393 
Q 588 878 588 1869 
L 588 4666 
z
" transform="scale(0.015625)"/>
     </defs>
     <use xlink:href="#DejaVuSans-Bold-69"/>
     <use xlink:href="#DejaVuSans-Bold-15" transform="translate(50 0)"/>
     <use xlink:href="#DejaVuSans-Bold-11" transform="translate(119.578125 0)"/>
     <use xlink:href="#DejaVuSans-Bold-17" transform="translate(157.5625 0)"/>
     <use xlink:href="#DejaVuSans-Bold-11" transform="translate(227.140625 0)"/>
     <use xlink:href="#DejaVuSans-Bold-14" transform="translate(265.125 0)"/>
     <use xlink:href="#DejaVuSans-Bold-3" transform="translate(334.703125 0)"/>
     <use xlink:href="#DejaVuSans-Bold-af6" transform="translate(369.515625 0)"/>
     <use xlink:href="#DejaVuSans-Bold-3" transform="translate(469.515625 0)"/>
     <use xlink:href="#DejaVuSans-Bold-2c" transform="translate(504.328125 0)"/>
     <use xlink:href="#DejaVuSans-Bold-30" transform="translate(541.53125 0)"/>
     <use xlink:href="#DejaVuSans-Bold-33" transform="translate(641.046875 0)"/>
     <use xlink:href="#DejaVuSans-Bold-28" transform="translate(714.34375 0)"/>
     <use xlink:href="#DejaVuSans-Bold-35" transform="translate(782.65625 0)"/>
     <use xlink:href="#DejaVuSans-Bold-36" transform="translate(859.65625 0)"/>
     <use xlink:href="#DejaVuSans-Bold-32" transform="translate(931.671875 0)"/>
     <use xlink:href="#DejaVuSans-Bold-31" transform="translate(1016.6875 0)"/>
     <use xlink:href="#DejaVuSans-Bold-24" transform="translate(1100.375 0)"/>
     <use xlink:href="#DejaVuSans-Bold-37" transform="translate(1170 0)"/>
     <use xlink:href="#DejaVuSans-Bold-2c" transform="translate(1238.21875 0)"/>
     <use xlink:href="#DejaVuSans-Bold-32" transform="translate(1275.421875 0)"/>
     <use xlink:href="#DejaVuSans-Bold-31" transform="translate(1360.4375 0)"/>
     <use xlink:href="#DejaVuSans-Bold-3" transform="translate(1444.125 0)"/>
     <use xlink:href="#DejaVuSans-Bold-2f" transform="translate(1478.9375 0)"/>
     <use xlink:href="#DejaVuSans-Bold-24" transform="translate(1542.65625 0)"/>
     <use xlink:href="#DejaVuSans-Bold-37" transform="translate(1612.28125 0)"/>
     <use xlink:href="#DejaVuSans-Bold-28" transform="translate(1680.5 0)"/>
     <use xlink:href="#DejaVuSans-Bold-31" transform="translate(1748.8125 0)"/>
     <use xlink:href="#DejaVuSans-Bold-26" transform="translate(1832.5 0)"/>
     <use xlink:href="#DejaVuSans-Bold-3c" transform="translate(1905.890625 0)"/>
     <use xlink:href="#DejaVuSans-Bold-1d" transform="translate(1969.609375 0)"/>
     <use xlink:href="#DejaVuSans-Bold-3" transform="translate(2009.59375 0)"/>
     <use xlink:href="#DejaVuSans-Bold-29" transform="translate(2044.40625 0)"/>
     <use xlink:href="#DejaVuSans-Bold-32" transform="translate(2112.71875 0)"/>
     <use xlink:href="#DejaVuSans-Bold-35" transform="translate(2197.734375 0)"/>
     <use xlink:href="#DejaVuSans-Bold-30" transform="translate(2274.734375 0)"/>
     <use xlink:href="#DejaVuSans-Bold-24" transform="translate(2374.25 0)"/>
     <use xlink:href="#DejaVuSans-Bold-2f" transform="translate(2451.640625 0)"/>
     <use xlink:href="#DejaVuSans-Bold-3" transform="translate(2515.359375 0)"/>
     <use xlink:href="#DejaVuSans-Bold-30" transform="translate(2550.171875 0)"/>
     <use xlink:href="#DejaVuSans-Bold-28" transform="translate(2649.6875 0)"/>
     <use xlink:href="#DejaVuSans-Bold-24" transform="translate(2718 0)"/>
     <use xlink:href="#DejaVuSans-Bold-36" transform="translate(2795.390625 0)"/>
     <use xlink:href="#DejaVuSans-Bold-38" transform="translate(2867.40625 0)"/>
     <use xlink:href="#DejaVuSans-Bold-35" transform="translate(2948.609375 0)"/>
     <use xlink:href="#DejaVuSans-Bold-28" transform="translate(3025.609375 0)"/>
     <use xlink:href="#DejaVuSans-Bold-30" transform="translate(3093.921875 0)"/>
     <use xlink:href="#DejaVuSans-Bold-28" transform="translate(3193.4375 0)"/>
     <use xlink:href="#DejaVuSans-Bold-31" transform="translate(3261.75 0)"/>
     <use xlink:href="#DejaVuSans-Bold-37" transform="translate(3345.4375 0)"/>
    </g>
   </g>
   <g id="text_2">
    <!-- Time form -->
    <g style="fill: #14b8a6" transform="translate(37.89 55.269637) scale(0.1 -0.1)">
     <defs>
      <path id="DejaVuSans-Bold-4c" d="M 538 3500 
L 1656 3500 
L 1656 0 
L 538 0 
L 538 3500 
z
M 538 4863 
L 1656 4863 
L 1656 3950 
L 538 3950 
L 538 4863 
z
" transform="scale(0.015625)"/>
      <path id="DejaVuSans-Bold-50" d="M 3781 2919 
Q 3994 3244 4286 3414 
Q 4578 3584 4928 3584 
Q 5531 3584 5847 3212 
Q 6163 2841 6163 2131 
L 6163 0 
L 5038 0 
L 5038 1825 
Q 5041 1866 5042 1909 
Q 5044 1953 5044 2034 
Q 5044 2406 4934 2573 
Q 4825 2741 4581 2741 
Q 4263 2741 4089 2478 
Q 3916 2216 3909 1719 
L 3909 0 
L 2784 0 
L 2784 1825 
Q 2784 2406 2684 2573 
Q 2584 2741 2328 2741 
Q 2006 2741 1831 2477 
Q 1656 2213 1656 1722 
L 1656 0 
L 531 0 
L 531 3500 
L 1656 3500 
L 1656 2988 
Q 1863 3284 2130 3434 
Q 2397 3584 2719 3584 
Q 3081 3584 3359 3409 
Q 3638 3234 3781 2919 
z
" transform="scale(0.015625)"/>
      <path id="DejaVuSans-Bold-48" d="M 4031 1759 
L 4031 1441 
L 1416 1441 
Q 1456 1047 1700 850 
Q 1944 653 2381 653 
Q 2734 653 3104 758 
Q 3475 863 3866 1075 
L 3866 213 
Q 3469 63 3072 -14 
Q 2675 -91 2278 -91 
Q 1328 -91 801 392 
Q 275 875 275 1747 
Q 275 2603 792 3093 
Q 1309 3584 2216 3584 
Q 3041 3584 3536 3087 
Q 4031 2591 4031 1759 
z
M 2881 2131 
Q 2881 2450 2695 2645 
Q 2509 2841 2209 2841 
Q 1884 2841 1681 2658 
Q 1478 2475 1428 2131 
L 2881 2131 
z
" transform="scale(0.015625)"/>
      <path id="DejaVuSans-Bold-49" d="M 2841 4863 
L 2841 4128 
L 2222 4128 
Q 1984 4128 1890 4042 
Q 1797 3956 1797 3744 
L 1797 3500 
L 2753 3500 
L 2753 2700 
L 1797 2700 
L 1797 0 
L 678 0 
L 678 2700 
L 122 2700 
L 122 3500 
L 678 3500 
L 678 3744 
Q 678 4316 997 4589 
Q 1316 4863 1984 4863 
L 2841 4863 
z
" transform="scale(0.015625)"/>
      <path id="DejaVuSans-Bold-52" d="M 2203 2784 
Q 1831 2784 1636 2517 
Q 1441 2250 1441 1747 
Q 1441 1244 1636 976 
Q 1831 709 2203 709 
Q 2569 709 2762 976 
Q 2956 1244 2956 1747 
Q 2956 2250 2762 2517 
Q 2569 2784 2203 2784 
z
M 2203 3584 
Q 3106 3584 3614 3096 
Q 4122 2609 4122 1747 
Q 4122 884 3614 396 
Q 3106 -91 2203 -91 
Q 1297 -91 786 396 
Q 275 884 275 1747 
Q 275 2609 786 3096 
Q 1297 3584 2203 3584 
z
" transform="scale(0.015625)"/>
      <path id="DejaVuSans-Bold-55" d="M 3138 2547 
Q 2991 2616 2845 2648 
Q 2700 2681 2553 2681 
Q 2122 2681 1889 2404 
Q 1656 2128 1656 1613 
L 1656 0 
L 538 0 
L 538 3500 
L 1656 3500 
L 1656 2925 
Q 1872 3269 2151 3426 
Q 2431 3584 2822 3584 
Q 2878 3584 2943 3579 
Q 3009 3575 3134 3559 
L 3138 2547 
z
" transform="scale(0.015625)"/>
     </defs>
     <use xlink:href="#DejaVuSans-Bold-37"/>
     <use xlink:href="#DejaVuSans-Bold-4c" transform="translate(68.21875 0)"/>
     <use xlink:href="#DejaVuSans-Bold-50" transform="translate(102.5 0)"/>
     <use xlink:href="#DejaVuSans-Bold-48" transform="translate(206.703125 0)"/>
     <use xlink:href="#DejaVuSans-Bold-3" transform="translate(274.53125 0)"/>
     <use xlink:href="#DejaVuSans-Bold-49" transform="translate(309.34375 0)"/>
     <use xlink:href="#DejaVuSans-Bold-52" transform="translate(352.84375 0)"/>
     <use xlink:href="#DejaVuSans-Bold-55" transform="translate(421.546875 0)"/>
     <use xlink:href="#DejaVuSans-Bold-50" transform="translate(470.859375 0)"/>
    </g>
   </g>
   <g id="text_3">
    <!-- $\mathrm{IL} = t_{\mathrm{disclosure}} - t_{\mathrm{connect}}$ -->
    <g style="fill: #67e8f9" transform="translate(216.39 83.42825) scale(0.16 -0.16)">
     <defs>
      <path id="DejaVuSans-2c" d="M 628 4666 
L 1259 4666 
L 1259 0 
L 628 0 
L 628 4666 
z
" transform="scale(0.015625)"/>
      <path id="DejaVuSans-2f" d="M 628 4666 
L 1259 4666 
L 1259 531 
L 3531 531 
L 3531 0 
L 628 0 
L 628 4666 
z
" transform="scale(0.015625)"/>
      <path id="DejaVuSans-20" d="M 678 2906 
L 4684 2906 
L 4684 2381 
L 678 2381 
L 678 2906 
z
M 678 1631 
L 4684 1631 
L 4684 1100 
L 678 1100 
L 678 1631 
z
" transform="scale(0.015625)"/>
      <path id="DejaVuSans-Oblique-57" d="M 2706 3500 
L 2619 3053 
L 1472 3053 
L 1100 1153 
Q 1081 1047 1072 975 
Q 1063 903 1063 863 
Q 1063 663 1183 572 
Q 1303 481 1569 481 
L 2150 481 
L 2053 0 
L 1503 0 
Q 991 0 739 200 
Q 488 400 488 806 
Q 488 878 497 964 
Q 506 1050 525 1153 
L 897 3053 
L 409 3053 
L 500 3500 
L 978 3500 
L 1172 4494 
L 1747 4494 
L 1556 3500 
L 2706 3500 
z
" transform="scale(0.015625)"/>
      <path id="DejaVuSans-47" d="M 2906 2969 
L 2906 4863 
L 3481 4863 
L 3481 0 
L 2906 0 
L 2906 525 
Q 2725 213 2448 61 
Q 2172 -91 1784 -91 
Q 1150 -91 751 415 
Q 353 922 353 1747 
Q 353 2572 751 3078 
Q 1150 3584 1784 3584 
Q 2172 3584 2448 3432 
Q 2725 3281 2906 2969 
z
M 947 1747 
Q 947 1113 1208 752 
Q 1469 391 1925 391 
Q 2381 391 2643 752 
Q 2906 1113 2906 1747 
Q 2906 2381 2643 2742 
Q 2381 3103 1925 3103 
Q 1469 3103 1208 2742 
Q 947 2381 947 1747 
z
" transform="scale(0.015625)"/>
      <path id="DejaVuSans-4c" d="M 603 3500 
L 1178 3500 
L 1178 0 
L 603 0 
L 603 3500 
z
M 603 4863 
L 1178 4863 
L 1178 4134 
L 603 4134 
L 603 4863 
z
" transform="scale(0.015625)"/>
      <path id="DejaVuSans-56" d="M 2834 3397 
L 2834 2853 
Q 2591 2978 2328 3040 
Q 2066 3103 1784 3103 
Q 1356 3103 1142 2972 
Q 928 2841 928 2578 
Q 928 2378 1081 2264 
Q 1234 2150 1697 2047 
L 1894 2003 
Q 2506 1872 2764 1633 
Q 3022 1394 3022 966 
Q 3022 478 2636 193 
Q 2250 -91 1575 -91 
Q 1294 -91 989 -36 
Q 684 19 347 128 
L 347 722 
Q 666 556 975 473 
Q 1284 391 1588 391 
Q 1994 391 2212 530 
Q 2431 669 2431 922 
Q 2431 1156 2273 1281 
Q 2116 1406 1581 1522 
L 1381 1569 
Q 847 1681 609 1914 
Q 372 2147 372 2553 
Q 372 3047 722 3315 
Q 1072 3584 1716 3584 
Q 2034 3584 2315 3537 
Q 2597 3491 2834 3397 
z
" transform="scale(0.015625)"/>
      <path id="DejaVuSans-46" d="M 3122 3366 
L 3122 2828 
Q 2878 2963 2633 3030 
Q 2388 3097 2138 3097 
Q 1578 3097 1268 2742 
Q 959 2388 959 1747 
Q 959 1106 1268 751 
Q 1578 397 2138 397 
Q 2388 397 2633 464 
Q 2878 531 3122 666 
L 3122 134 
Q 2881 22 2623 -34 
Q 2366 -91 2075 -91 
Q 1284 -91 818 406 
Q 353 903 353 1747 
Q 353 2603 823 3093 
Q 1294 3584 2113 3584 
Q 2378 3584 2631 3529 
Q 2884 3475 3122 3366 
z
" transform="scale(0.015625)"/>
      <path id="DejaVuSans-4f" d="M 603 4863 
L 1178 4863 
L 1178 0 
L 603 0 
L 603 4863 
z
" transform="scale(0.015625)"/>
      <path id="DejaVuSans-52" d="M 1959 3097 
Q 1497 3097 1228 2736 
Q 959 2375 959 1747 
Q 959 1119 1226 758 
Q 1494 397 1959 397 
Q 2419 397 2687 759 
Q 2956 1122 2956 1747 
Q 2956 2369 2687 2733 
Q 2419 3097 1959 3097 
z
M 1959 3584 
Q 2709 3584 3137 3096 
Q 3566 2609 3566 1747 
Q 3566 888 3137 398 
Q 2709 -91 1959 -91 
Q 1206 -91 779 398 
Q 353 888 353 1747 
Q 353 2609 779 3096 
Q 1206 3584 1959 3584 
z
" transform="scale(0.015625)"/>
      <path id="DejaVuSans-58" d="M 544 1381 
L 544 3500 
L 1119 3500 
L 1119 1403 
Q 1119 906 1312 657 
Q 1506 409 1894 409 
Q 2359 409 2629 706 
Q 2900 1003 2900 1516 
L 2900 3500 
L 3475 3500 
L 3475 0 
L 2900 0 
L 2900 538 
Q 2691 219 2414 64 
Q 2138 -91 1772 -91 
Q 1169 -91 856 284 
Q 544 659 544 1381 
z
M 1991 3584 
L 1991 3584 
z
" transform="scale(0.015625)"/>
      <path id="DejaVuSans-55" d="M 2631 2963 
Q 2534 3019 2420 3045 
Q 2306 3072 2169 3072 
Q 1681 3072 1420 2755 
Q 1159 2438 1159 1844 
L 1159 0 
L 581 0 
L 581 3500 
L 1159 3500 
L 1159 2956 
Q 1341 3275 1631 3429 
Q 1922 3584 2338 3584 
Q 2397 3584 2469 3576 
Q 2541 3569 2628 3553 
L 2631 2963 
z
" transform="scale(0.015625)"/>
      <path id="DejaVuSans-48" d="M 3597 1894 
L 3597 1613 
L 953 1613 
Q 991 1019 1311 708 
Q 1631 397 2203 397 
Q 2534 397 2845 478 
Q 3156 559 3463 722 
L 3463 178 
Q 3153 47 2828 -22 
Q 2503 -91 2169 -91 
Q 1331 -91 842 396 
Q 353 884 353 1716 
Q 353 2575 817 3079 
Q 1281 3584 2069 3584 
Q 2775 3584 3186 3129 
Q 3597 2675 3597 1894 
z
M 3022 2063 
Q 3016 2534 2758 2815 
Q 2500 3097 2075 3097 
Q 1594 3097 1305 2825 
Q 1016 2553 972 2059 
L 3022 2063 
z
" transform="scale(0.015625)"/>
      <path id="DejaVuSans-c9c" d="M 678 2272 
L 4684 2272 
L 4684 1741 
L 678 1741 
L 678 2272 
z
" transform="scale(0.015625)"/>
      <path id="DejaVuSans-51" d="M 3513 2113 
L 3513 0 
L 2938 0 
L 2938 2094 
Q 2938 2591 2744 2837 
Q 2550 3084 2163 3084 
Q 1697 3084 1428 2787 
Q 1159 2491 1159 1978 
L 1159 0 
L 581 0 
L 581 3500 
L 1159 3500 
L 1159 2956 
Q 1366 3272 1645 3428 
Q 1925 3584 2291 3584 
Q 2894 3584 3203 3211 
Q 3513 2838 3513 2113 
z
" transform="scale(0.015625)"/>
      <path id="DejaVuSans-57" d="M 1172 4494 
L 1172 3500 
L 2356 3500 
L 2356 3053 
L 1172 3053 
L 1172 1153 
Q 1172 725 1289 603 
Q 1406 481 1766 481 
L 2356 481 
L 2356 0 
L 1766 0 
Q 1100 0 847 248 
Q 594 497 594 1153 
L 594 3053 
L 172 3053 
L 172 3500 
L 594 3500 
L 594 4494 
L 1172 4494 
z
" transform="scale(0.015625)"/>
     </defs>
     <use xlink:href="#DejaVuSans-2c" transform="translate(0 0.09375)"/>
     <use xlink:href="#DejaVuSans-2f" transform="translate(29.492188 0.09375)"/>
     <use xlink:href="#DejaVuSans-20" transform="translate(104.6875 0.09375)"/>
     <use xlink:href="#DejaVuSans-Oblique-57" transform="translate(207.958984 0.09375)"/>
     <use xlink:href="#DejaVuSans-47" transform="translate(247.167969 -14.906201) scale(0.7)"/>
     <use xlink:href="#DejaVuSans-4c" transform="translate(291.601562 -14.906201) scale(0.7)"/>
     <use xlink:href="#DejaVuSans-56" transform="translate(311.049805 -14.906201) scale(0.7)"/>
     <use xlink:href="#DejaVuSans-46" transform="translate(347.519531 -14.906201) scale(0.7)"/>
     <use xlink:href="#DejaVuSans-4f" transform="translate(386.005859 -14.906201) scale(0.7)"/>
     <use xlink:href="#DejaVuSans-52" transform="translate(405.454102 -14.906201) scale(0.7)"/>
     <use xlink:href="#DejaVuSans-56" transform="translate(448.28125 -14.906201) scale(0.7)"/>
     <use xlink:href="#DejaVuSans-58" transform="translate(484.750977 -14.906201) scale(0.7)"/>
     <use xlink:href="#DejaVuSans-55" transform="translate(529.116211 -14.906201) scale(0.7)"/>
     <use xlink:href="#DejaVuSans-48" transform="translate(556.495508 -14.906201) scale(0.7)"/>
     <use xlink:href="#DejaVuSans-c9c" transform="translate(621.778711 0.09375)"/>
     <use xlink:href="#DejaVuSans-Oblique-57" transform="translate(725.050195 0.09375)"/>
     <use xlink:href="#DejaVuSans-46" transform="translate(764.25918 -14.906201) scale(0.7)"/>
     <use xlink:href="#DejaVuSans-52" transform="translate(802.745508 -14.906201) scale(0.7)"/>
     <use xlink:href="#DejaVuSans-51" transform="translate(845.572656 -14.906201) scale(0.7)"/>
     <use xlink:href="#DejaVuSans-51" transform="translate(889.937891 -14.906201) scale(0.7)"/>
     <use xlink:href="#DejaVuSans-48" transform="translate(934.303125 -14.906201) scale(0.7)"/>
     <use xlink:href="#DejaVuSans-46" transform="translate(977.369531 -14.906201) scale(0.7)"/>
     <use xlink:href="#DejaVuSans-57" transform="translate(1015.855859 -14.906201) scale(0.7)"/>
    </g>
   </g>
   <g id="text_4">
    <!-- No disclosure: $\mathrm{IL} \geq t_{\mathrm{call\_end}} - t_{\mathrm{connect}}$   (right-censored) -->
    <g style="fill: #94a3b8" transform="translate(169.15 111.964) scale(0.1 -0.1)">
     <defs>
      <path id="DejaVuSans-31" d="M 628 4666 
L 1478 4666 
L 3547 763 
L 3547 4666 
L 4159 4666 
L 4159 0 
L 3309 0 
L 1241 3903 
L 1241 0 
L 628 0 
L 628 4666 
z
" transform="scale(0.015625)"/>
      <path id="DejaVuSans-3" transform="scale(0.015625)"/>
      <path id="DejaVuSans-1d" d="M 750 794 
L 1409 794 
L 1409 0 
L 750 0 
L 750 794 
z
M 750 3309 
L 1409 3309 
L 1409 2516 
L 750 2516 
L 750 3309 
z
" transform="scale(0.015625)"/>
      <path id="DejaVuSans-cef" d="M 678 3175 
L 678 3725 
L 4684 2578 
L 4684 2047 
L 678 897 
L 678 1453 
L 3681 2309 
L 678 3175 
z
M 4684 531 
L 4684 0 
L 678 0 
L 678 531 
L 4684 531 
z
" transform="scale(0.015625)"/>
      <path id="DejaVuSans-44" d="M 2194 1759 
Q 1497 1759 1228 1600 
Q 959 1441 959 1056 
Q 959 750 1161 570 
Q 1363 391 1709 391 
Q 2188 391 2477 730 
Q 2766 1069 2766 1631 
L 2766 1759 
L 2194 1759 
z
M 3341 1997 
L 3341 0 
L 2766 0 
L 2766 531 
Q 2569 213 2275 61 
Q 1981 -91 1556 -91 
Q 1019 -91 701 211 
Q 384 513 384 1019 
Q 384 1609 779 1909 
Q 1175 2209 1959 2209 
L 2766 2209 
L 2766 2266 
Q 2766 2663 2505 2880 
Q 2244 3097 1772 3097 
Q 1472 3097 1187 3025 
Q 903 2953 641 2809 
L 641 3341 
Q 956 3463 1253 3523 
Q 1550 3584 1831 3584 
Q 2591 3584 2966 3190 
Q 3341 2797 3341 1997 
z
" transform="scale(0.015625)"/>
      <path id="DejaVuSans-42" d="M 3263 -1063 
L 3263 -1509 
L -63 -1509 
L -63 -1063 
L 3263 -1063 
z
" transform="scale(0.015625)"/>
      <path id="DejaVuSans-b" d="M 1984 4856 
Q 1566 4138 1362 3434 
Q 1159 2731 1159 2009 
Q 1159 1288 1364 580 
Q 1569 -128 1984 -844 
L 1484 -844 
Q 1016 -109 783 600 
Q 550 1309 550 2009 
Q 550 2706 781 3412 
Q 1013 4119 1484 4856 
L 1984 4856 
z
" transform="scale(0.015625)"/>
      <path id="DejaVuSans-4a" d="M 2906 1791 
Q 2906 2416 2648 2759 
Q 2391 3103 1925 3103 
Q 1463 3103 1205 2759 
Q 947 2416 947 1791 
Q 947 1169 1205 825 
Q 1463 481 1925 481 
Q 2391 481 2648 825 
Q 2906 1169 2906 1791 
z
M 3481 434 
Q 3481 -459 3084 -895 
Q 2688 -1331 1869 -1331 
Q 1566 -1331 1297 -1286 
Q 1028 -1241 775 -1147 
L 775 -588 
Q 1028 -725 1275 -790 
Q 1522 -856 1778 -856 
Q 2344 -856 2625 -561 
Q 2906 -266 2906 331 
L 2906 616 
Q 2728 306 2450 153 
Q 2172 0 1784 0 
Q 1141 0 747 490 
Q 353 981 353 1791 
Q 353 2603 747 3093 
Q 1141 3584 1784 3584 
Q 2172 3584 2450 3431 
Q 2728 3278 2906 2969 
L 2906 3500 
L 3481 3500 
L 3481 434 
z
" transform="scale(0.015625)"/>
      <path id="DejaVuSans-4b" d="M 3513 2113 
L 3513 0 
L 2938 0 
L 2938 2094 
Q 2938 2591 2744 2837 
Q 2550 3084 2163 3084 
Q 1697 3084 1428 2787 
Q 1159 2491 1159 1978 
L 1159 0 
L 581 0 
L 581 4863 
L 1159 4863 
L 1159 2956 
Q 1366 3272 1645 3428 
Q 1925 3584 2291 3584 
Q 2894 3584 3203 3211 
Q 3513 2838 3513 2113 
z
" transform="scale(0.015625)"/>
      <path id="DejaVuSans-10" d="M 313 2009 
L 1997 2009 
L 1997 1497 
L 313 1497 
L 313 2009 
z
" transform="scale(0.015625)"/>
      <path id="DejaVuSans-c" d="M 513 4856 
L 1013 4856 
Q 1481 4119 1714 3412 
Q 1947 2706 1947 2009 
Q 1947 1309 1714 600 
Q 1481 -109 1013 -844 
L 513 -844 
Q 928 -128 1133 580 
Q 1338 1288 1338 2009 
Q 1338 2731 1133 3434 
Q 928 4138 513 4856 
z
" transform="scale(0.015625)"/>
     </defs>
     <use xlink:href="#DejaVuSans-31" transform="translate(0 0.015625)"/>
     <use xlink:href="#DejaVuSans-52" transform="translate(74.804688 0.015625)"/>
     <use xlink:href="#DejaVuSans-3" transform="translate(135.986328 0.015625)"/>
     <use xlink:href="#DejaVuSans-47" transform="translate(167.773438 0.015625)"/>
     <use xlink:href="#DejaVuSans-4c" transform="translate(231.25 0.015625)"/>
     <use xlink:href="#DejaVuSans-56" transform="translate(259.033203 0.015625)"/>
     <use xlink:href="#DejaVuSans-46" transform="translate(311.132812 0.015625)"/>
     <use xlink:href="#DejaVuSans-4f" transform="translate(366.113281 0.015625)"/>
     <use xlink:href="#DejaVuSans-52" transform="translate(393.896484 0.015625)"/>
     <use xlink:href="#DejaVuSans-56" transform="translate(455.078125 0.015625)"/>
     <use xlink:href="#DejaVuSans-58" transform="translate(507.177734 0.015625)"/>
     <use xlink:href="#DejaVuSans-55" transform="translate(570.556641 0.015625)"/>
     <use xlink:href="#DejaVuSans-48" transform="translate(609.669922 0.015625)"/>
     <use xlink:href="#DejaVuSans-1d" transform="translate(671.193359 0.015625)"/>
     <use xlink:href="#DejaVuSans-3" transform="translate(704.884766 0.015625)"/>
     <use xlink:href="#DejaVuSans-2c" transform="translate(736.671875 0.015625)"/>
     <use xlink:href="#DejaVuSans-2f" transform="translate(766.164062 0.015625)"/>
     <use xlink:href="#DejaVuSans-cef" transform="translate(841.359375 0.015625)"/>
     <use xlink:href="#DejaVuSans-Oblique-57" transform="translate(944.630859 0.015625)"/>
     <use xlink:href="#DejaVuSans-46" transform="translate(983.839844 -14.984326) scale(0.7)"/>
     <use xlink:href="#DejaVuSans-44" transform="translate(1022.326172 -14.984326) scale(0.7)"/>
     <use xlink:href="#DejaVuSans-4f" transform="translate(1065.22168 -14.984326) scale(0.7)"/>
     <use xlink:href="#DejaVuSans-4f" transform="translate(1084.669922 -14.984326) scale(0.7)"/>
     <use xlink:href="#DejaVuSans-42" transform="translate(1104.118164 -14.984326) scale(0.7)"/>
     <use xlink:href="#DejaVuSans-48" transform="translate(1139.118164 -14.984326) scale(0.7)"/>
     <use xlink:href="#DejaVuSans-51" transform="translate(1182.18457 -14.984326) scale(0.7)"/>
     <use xlink:href="#DejaVuSans-47" transform="translate(1226.549805 -14.984326) scale(0.7)"/>
     <use xlink:href="#DejaVuSans-c9c" transform="translate(1293.200195 0.015625)"/>
     <use xlink:href="#DejaVuSans-Oblique-57" transform="translate(1396.47168 0.015625)"/>
     <use xlink:href="#DejaVuSans-46" transform="translate(1435.680664 -14.984326) scale(0.7)"/>
     <use xlink:href="#DejaVuSans-52" transform="translate(1474.166992 -14.984326) scale(0.7)"/>
     <use xlink:href="#DejaVuSans-51" transform="translate(1516.994141 -14.984326) scale(0.7)"/>
     <use xlink:href="#DejaVuSans-51" transform="translate(1561.359375 -14.984326) scale(0.7)"/>
     <use xlink:href="#DejaVuSans-48" transform="translate(1605.724609 -14.984326) scale(0.7)"/>
     <use xlink:href="#DejaVuSans-46" transform="translate(1648.791016 -14.984326) scale(0.7)"/>
     <use xlink:href="#DejaVuSans-57" transform="translate(1687.277344 -14.984326) scale(0.7)"/>
     <use xlink:href="#DejaVuSans-3" transform="translate(1717.458008 0.015625)"/>
     <use xlink:href="#DejaVuSans-3" transform="translate(1749.245117 0.015625)"/>
     <use xlink:href="#DejaVuSans-3" transform="translate(1781.032227 0.015625)"/>
     <use xlink:href="#DejaVuSans-b" transform="translate(1812.819336 0.015625)"/>
     <use xlink:href="#DejaVuSans-55" transform="translate(1851.833008 0.015625)"/>
     <use xlink:href="#DejaVuSans-4c" transform="translate(1892.946289 0.015625)"/>
     <use xlink:href="#DejaVuSans-4a" transform="translate(1920.729492 0.015625)"/>
     <use xlink:href="#DejaVuSans-4b" transform="translate(1984.206055 0.015625)"/>
     <use xlink:href="#DejaVuSans-57" transform="translate(2047.584961 0.015625)"/>
     <use xlink:href="#DejaVuSans-10" transform="translate(2086.793945 0.015625)"/>
     <use xlink:href="#DejaVuSans-46" transform="translate(2122.87793 0.015625)"/>
     <use xlink:href="#DejaVuSans-48" transform="translate(2177.858398 0.015625)"/>
     <use xlink:href="#DejaVuSans-51" transform="translate(2239.381836 0.015625)"/>
     <use xlink:href="#DejaVuSans-56" transform="translate(2302.760742 0.015625)"/>
     <use xlink:href="#DejaVuSans-52" transform="translate(2354.860352 0.015625)"/>
     <use xlink:href="#DejaVuSans-55" transform="translate(2416.041992 0.015625)"/>
     <use xlink:href="#DejaVuSans-48" transform="translate(2455.155273 0.015625)"/>
     <use xlink:href="#DejaVuSans-47" transform="translate(2516.678711 0.015625)"/>
     <use xlink:href="#DejaVuSans-c" transform="translate(2580.155273 0.015625)"/>
    </g>
   </g>
   <g id="text_5">
    <!-- $t_{\mathrm{disclosure}}$ = first valid IDG-01 event  ·  $t_{\mathrm{connect}}$ = session start -->
    <g style="fill: #94a3b8" transform="translate(37.89 123.125091) scale(0.09 -0.09)">
     <defs>
      <path id="DejaVuSans-49" d="M 2375 4863 
L 2375 4384 
L 1825 4384 
Q 1516 4384 1395 4259 
Q 1275 4134 1275 3809 
L 1275 3500 
L 2222 3500 
L 2222 3053 
L 1275 3053 
L 1275 0 
L 697 0 
L 697 3053 
L 147 3053 
L 147 3500 
L 697 3500 
L 697 3744 
Q 697 4328 969 4595 
Q 1241 4863 1831 4863 
L 2375 4863 
z
" transform="scale(0.015625)"/>
      <path id="DejaVuSans-59" d="M 191 3500 
L 800 3500 
L 1894 563 
L 2988 3500 
L 3597 3500 
L 2284 0 
L 1503 0 
L 191 3500 
z
" transform="scale(0.015625)"/>
      <path id="DejaVuSans-27" d="M 1259 4147 
L 1259 519 
L 2022 519 
Q 2988 519 3436 956 
Q 3884 1394 3884 2338 
Q 3884 3275 3436 3711 
Q 2988 4147 2022 4147 
L 1259 4147 
z
M 628 4666 
L 1925 4666 
Q 3281 4666 3915 4102 
Q 4550 3538 4550 2338 
Q 4550 1131 3912 565 
Q 3275 0 1925 0 
L 628 0 
L 628 4666 
z
" transform="scale(0.015625)"/>
      <path id="DejaVuSans-2a" d="M 3809 666 
L 3809 1919 
L 2778 1919 
L 2778 2438 
L 4434 2438 
L 4434 434 
Q 4069 175 3628 42 
Q 3188 -91 2688 -91 
Q 1594 -91 976 548 
Q 359 1188 359 2328 
Q 359 3472 976 4111 
Q 1594 4750 2688 4750 
Q 3144 4750 3555 4637 
Q 3966 4525 4313 4306 
L 4313 3634 
Q 3963 3931 3569 4081 
Q 3175 4231 2741 4231 
Q 1884 4231 1454 3753 
Q 1025 3275 1025 2328 
Q 1025 1384 1454 906 
Q 1884 428 2741 428 
Q 3075 428 3337 486 
Q 3600 544 3809 666 
z
" transform="scale(0.015625)"/>
      <path id="DejaVuSans-13" d="M 2034 4250 
Q 1547 4250 1301 3770 
Q 1056 3291 1056 2328 
Q 1056 1369 1301 889 
Q 1547 409 2034 409 
Q 2525 409 2770 889 
Q 3016 1369 3016 2328 
Q 3016 3291 2770 3770 
Q 2525 4250 2034 4250 
z
M 2034 4750 
Q 2819 4750 3233 4129 
Q 3647 3509 3647 2328 
Q 3647 1150 3233 529 
Q 2819 -91 2034 -91 
Q 1250 -91 836 529 
Q 422 1150 422 2328 
Q 422 3509 836 4129 
Q 1250 4750 2034 4750 
z
" transform="scale(0.015625)"/>
      <path id="DejaVuSans-14" d="M 794 531 
L 1825 531 
L 1825 4091 
L 703 3866 
L 703 4441 
L 1819 4666 
L 2450 4666 
L 2450 531 
L 3481 531 
L 3481 0 
L 794 0 
L 794 531 
z
" transform="scale(0.015625)"/>
      <path id="DejaVuSans-79" d="M 684 2619 
L 1344 2619 
L 1344 1825 
L 684 1825 
L 684 2619 
z
" transform="scale(0.015625)"/>
     </defs>
     <use xlink:href="#DejaVuSans-Oblique-57" transform="translate(0 0.015625)"/>
     <use xlink:href="#DejaVuSans-47" transform="translate(39.208984 -14.984326) scale(0.7)"/>
     <use xlink:href="#DejaVuSans-4c" transform="translate(83.642578 -14.984326) scale(0.7)"/>
     <use xlink:href="#DejaVuSans-56" transform="translate(103.09082 -14.984326) scale(0.7)"/>
     <use xlink:href="#DejaVuSans-46" transform="translate(139.560547 -14.984326) scale(0.7)"/>
     <use xlink:href="#DejaVuSans-4f" transform="translate(178.046875 -14.984326) scale(0.7)"/>
     <use xlink:href="#DejaVuSans-52" transform="translate(197.495117 -14.984326) scale(0.7)"/>
     <use xlink:href="#DejaVuSans-56" transform="translate(240.322266 -14.984326) scale(0.7)"/>
     <use xlink:href="#DejaVuSans-58" transform="translate(276.791992 -14.984326) scale(0.7)"/>
     <use xlink:href="#DejaVuSans-55" transform="translate(321.157227 -14.984326) scale(0.7)"/>
     <use xlink:href="#DejaVuSans-48" transform="translate(348.536523 -14.984326) scale(0.7)"/>
     <use xlink:href="#DejaVuSans-3" transform="translate(394.337305 0.015625)"/>
     <use xlink:href="#DejaVuSans-20" transform="translate(426.124414 0.015625)"/>
     <use xlink:href="#DejaVuSans-3" transform="translate(509.913477 0.015625)"/>
     <use xlink:href="#DejaVuSans-49" transform="translate(541.700586 0.015625)"/>
     <use xlink:href="#DejaVuSans-4c" transform="translate(576.905664 0.015625)"/>
     <use xlink:href="#DejaVuSans-55" transform="translate(604.688867 0.015625)"/>
     <use xlink:href="#DejaVuSans-56" transform="translate(645.802148 0.015625)"/>
     <use xlink:href="#DejaVuSans-57" transform="translate(697.901758 0.015625)"/>
     <use xlink:href="#DejaVuSans-3" transform="translate(737.110742 0.015625)"/>
     <use xlink:href="#DejaVuSans-59" transform="translate(768.897852 0.015625)"/>
     <use xlink:href="#DejaVuSans-44" transform="translate(828.077539 0.015625)"/>
     <use xlink:href="#DejaVuSans-4f" transform="translate(889.356836 0.015625)"/>
     <use xlink:href="#DejaVuSans-4c" transform="translate(917.140039 0.015625)"/>
     <use xlink:href="#DejaVuSans-47" transform="translate(944.923242 0.015625)"/>
     <use xlink:href="#DejaVuSans-3" transform="translate(1008.399805 0.015625)"/>
     <use xlink:href="#DejaVuSans-2c" transform="translate(1040.186914 0.015625)"/>
     <use xlink:href="#DejaVuSans-27" transform="translate(1069.679102 0.015625)"/>
     <use xlink:href="#DejaVuSans-2a" transform="translate(1146.681055 0.015625)"/>
     <use xlink:href="#DejaVuSans-10" transform="translate(1224.171289 0.015625)"/>
     <use xlink:href="#DejaVuSans-13" transform="translate(1260.255273 0.015625)"/>
     <use xlink:href="#DejaVuSans-14" transform="translate(1323.87832 0.015625)"/>
     <use xlink:href="#DejaVuSans-3" transform="translate(1387.501367 0.015625)"/>
     <use xlink:href="#DejaVuSans-48" transform="translate(1419.288477 0.015625)"/>
     <use xlink:href="#DejaVuSans-59" transform="translate(1480.811914 0.015625)"/>
     <use xlink:href="#DejaVuSans-48" transform="translate(1539.991602 0.015625)"/>
     <use xlink:href="#DejaVuSans-51" transform="translate(1601.515039 0.015625)"/>
     <use xlink:href="#DejaVuSans-57" transform="translate(1664.893945 0.015625)"/>
     <use xlink:href="#DejaVuSans-3" transform="translate(1704.10293 0.015625)"/>
     <use xlink:href="#DejaVuSans-3" transform="translate(1735.890039 0.015625)"/>
     <use xlink:href="#DejaVuSans-79" transform="translate(1767.677148 0.015625)"/>
     <use xlink:href="#DejaVuSans-3" transform="translate(1799.464258 0.015625)"/>
     <use xlink:href="#DejaVuSans-3" transform="translate(1831.251367 0.015625)"/>
     <use xlink:href="#DejaVuSans-Oblique-57" transform="translate(1863.038477 0.015625)"/>
     <use xlink:href="#DejaVuSans-46" transform="translate(1902.247461 -14.984326) scale(0.7)"/>
     <use xlink:href="#DejaVuSans-52" transform="translate(1940.733789 -14.984326) scale(0.7)"/>
     <use xlink:href="#DejaVuSans-51" transform="translate(1983.560937 -14.984326) scale(0.7)"/>
     <use xlink:href="#DejaVuSans-51" transform="translate(2027.926172 -14.984326) scale(0.7)"/>
     <use xlink:href="#DejaVuSans-48" transform="translate(2072.291406 -14.984326) scale(0.7)"/>
     <use xlink:href="#DejaVuSans-46" transform="translate(2115.357812 -14.984326) scale(0.7)"/>
     <use xlink:href="#DejaVuSans-57" transform="translate(2153.844141 -14.984326) scale(0.7)"/>
     <use xlink:href="#DejaVuSans-3" transform="translate(2184.024805 0.015625)"/>
     <use xlink:href="#DejaVuSans-20" transform="translate(2215.811914 0.015625)"/>
     <use xlink:href="#DejaVuSans-3" transform="translate(2299.600977 0.015625)"/>
     <use xlink:href="#DejaVuSans-56" transform="translate(2331.388086 0.015625)"/>
     <use xlink:href="#DejaVuSans-48" transform="translate(2383.487695 0.015625)"/>
     <use xlink:href="#DejaVuSans-56" transform="translate(2445.011133 0.015625)"/>
     <use xlink:href="#DejaVuSans-56" transform="translate(2497.110742 0.015625)"/>
     <use xlink:href="#DejaVuSans-4c" transform="translate(2549.210352 0.015625)"/>
     <use xlink:href="#DejaVuSans-52" transform="translate(2576.993555 0.015625)"/>
     <use xlink:href="#DejaVuSans-51" transform="translate(2638.175195 0.015625)"/>
     <use xlink:href="#DejaVuSans-3" transform="translate(2701.554102 0.015625)"/>
     <use xlink:href="#DejaVuSans-56" transform="translate(2733.341211 0.015625)"/>
     <use xlink:href="#DejaVuSans-57" transform="translate(2785.44082 0.015625)"/>
     <use xlink:href="#DejaVuSans-44" transform="translate(2824.649805 0.015625)"/>
     <use xlink:href="#DejaVuSans-55" transform="translate(2885.929102 0.015625)"/>
     <use xlink:href="#DejaVuSans-57" transform="translate(2927.042383 0.015625)"/>
    </g>
   </g>
   <g id="text_6">
    <!-- Turn form -->
    <g style="fill: #14b8a6" transform="translate(37.89 158.942437) scale(0.1 -0.1)">
     <defs>
      <path id="DejaVuSans-Bold-58" d="M 500 1363 
L 500 3500 
L 1625 3500 
L 1625 3150 
Q 1625 2866 1622 2436 
Q 1619 2006 1619 1863 
Q 1619 1441 1641 1255 
Q 1663 1069 1716 984 
Q 1784 875 1895 815 
Q 2006 756 2150 756 
Q 2500 756 2700 1025 
Q 2900 1294 2900 1772 
L 2900 3500 
L 4019 3500 
L 4019 0 
L 2900 0 
L 2900 506 
Q 2647 200 2364 54 
Q 2081 -91 1741 -91 
Q 1134 -91 817 281 
Q 500 653 500 1363 
z
" transform="scale(0.015625)"/>
      <path id="DejaVuSans-Bold-51" d="M 4056 2131 
L 4056 0 
L 2931 0 
L 2931 347 
L 2931 1631 
Q 2931 2084 2911 2256 
Q 2891 2428 2841 2509 
Q 2775 2619 2662 2680 
Q 2550 2741 2406 2741 
Q 2056 2741 1856 2470 
Q 1656 2200 1656 1722 
L 1656 0 
L 538 0 
L 538 3500 
L 1656 3500 
L 1656 2988 
Q 1909 3294 2193 3439 
Q 2478 3584 2822 3584 
Q 3428 3584 3742 3212 
Q 4056 2841 4056 2131 
z
" transform="scale(0.015625)"/>
     </defs>
     <use xlink:href="#DejaVuSans-Bold-37"/>
     <use xlink:href="#DejaVuSans-Bold-58" transform="translate(57.234375 0)"/>
     <use xlink:href="#DejaVuSans-Bold-55" transform="translate(128.421875 0)"/>
     <use xlink:href="#DejaVuSans-Bold-51" transform="translate(177.734375 0)"/>
     <use xlink:href="#DejaVuSans-Bold-3" transform="translate(248.921875 0)"/>
     <use xlink:href="#DejaVuSans-Bold-49" transform="translate(283.734375 0)"/>
     <use xlink:href="#DejaVuSans-Bold-52" transform="translate(327.234375 0)"/>
     <use xlink:href="#DejaVuSans-Bold-55" transform="translate(395.9375 0)"/>
     <use xlink:href="#DejaVuSans-Bold-50" transform="translate(445.25 0)"/>
    </g>
   </g>
   <g id="text_7">
    <!-- $\mathrm{IL}_{\mathrm{turns}} = |\{\ \text{completed turns before first valid disclosure}\ \}|$ -->
    <g style="fill: #67e8f9" transform="translate(121.4625 182.375035) scale(0.125 -0.125)">
     <defs>
      <path id="DejaVuSans-5f" d="M 1344 4891 
L 1344 -1509 
L 813 -1509 
L 813 4891 
L 1344 4891 
z
" transform="scale(0.015625)"/>
      <path id="DejaVuSans-5e" d="M 3272 -594 
L 3272 -1044 
L 3078 -1044 
Q 2300 -1044 2036 -812 
Q 1772 -581 1772 109 
L 1772 856 
Q 1772 1328 1603 1509 
Q 1434 1691 991 1691 
L 800 1691 
L 800 2138 
L 991 2138 
Q 1438 2138 1605 2317 
Q 1772 2497 1772 2963 
L 1772 3713 
Q 1772 4403 2036 4633 
Q 2300 4863 3078 4863 
L 3272 4863 
L 3272 4416 
L 3059 4416 
Q 2619 4416 2484 4278 
Q 2350 4141 2350 3700 
L 2350 2925 
Q 2350 2434 2208 2212 
Q 2066 1991 1722 1913 
Q 2069 1828 2209 1606 
Q 2350 1384 2350 897 
L 2350 122 
Q 2350 -319 2484 -456 
Q 2619 -594 3059 -594 
L 3272 -594 
z
" transform="scale(0.015625)"/>
      <path id="DejaVuSans-50" d="M 3328 2828 
Q 3544 3216 3844 3400 
Q 4144 3584 4550 3584 
Q 5097 3584 5394 3201 
Q 5691 2819 5691 2113 
L 5691 0 
L 5113 0 
L 5113 2094 
Q 5113 2597 4934 2840 
Q 4756 3084 4391 3084 
Q 3944 3084 3684 2787 
Q 3425 2491 3425 1978 
L 3425 0 
L 2847 0 
L 2847 2094 
Q 2847 2600 2669 2842 
Q 2491 3084 2119 3084 
Q 1678 3084 1418 2786 
Q 1159 2488 1159 1978 
L 1159 0 
L 581 0 
L 581 3500 
L 1159 3500 
L 1159 2956 
Q 1356 3278 1631 3431 
Q 1906 3584 2284 3584 
Q 2666 3584 2933 3390 
Q 3200 3197 3328 2828 
z
" transform="scale(0.015625)"/>
      <path id="DejaVuSans-53" d="M 1159 525 
L 1159 -1331 
L 581 -1331 
L 581 3500 
L 1159 3500 
L 1159 2969 
Q 1341 3281 1617 3432 
Q 1894 3584 2278 3584 
Q 2916 3584 3314 3078 
Q 3713 2572 3713 1747 
Q 3713 922 3314 415 
Q 2916 -91 2278 -91 
Q 1894 -91 1617 61 
Q 1341 213 1159 525 
z
M 3116 1747 
Q 3116 2381 2855 2742 
Q 2594 3103 2138 3103 
Q 1681 3103 1420 2742 
Q 1159 2381 1159 1747 
Q 1159 1113 1420 752 
Q 1681 391 2138 391 
Q 2594 391 2855 752 
Q 3116 1113 3116 1747 
z
" transform="scale(0.015625)"/>
      <path id="DejaVuSans-45" d="M 3116 1747 
Q 3116 2381 2855 2742 
Q 2594 3103 2138 3103 
Q 1681 3103 1420 2742 
Q 1159 2381 1159 1747 
Q 1159 1113 1420 752 
Q 1681 391 2138 391 
Q 2594 391 2855 752 
Q 3116 1113 3116 1747 
z
M 1159 2969 
Q 1341 3281 1617 3432 
Q 1894 3584 2278 3584 
Q 2916 3584 3314 3078 
Q 3713 2572 3713 1747 
Q 3713 922 3314 415 
Q 2916 -91 2278 -91 
Q 1894 -91 1617 61 
Q 1341 213 1159 525 
L 1159 0 
L 581 0 
L 581 4863 
L 1159 4863 
L 1159 2969 
z
" transform="scale(0.015625)"/>
      <path id="DejaVuSans-60" d="M 800 -594 
L 1019 -594 
Q 1456 -594 1589 -459 
Q 1722 -325 1722 122 
L 1722 897 
Q 1722 1384 1862 1606 
Q 2003 1828 2350 1913 
Q 2003 1991 1862 2212 
Q 1722 2434 1722 2925 
L 1722 3700 
Q 1722 4144 1589 4280 
Q 1456 4416 1019 4416 
L 800 4416 
L 800 4863 
L 997 4863 
Q 1775 4863 2036 4633 
Q 2297 4403 2297 3713 
L 2297 2963 
Q 2297 2497 2465 2317 
Q 2634 2138 3078 2138 
L 3272 2138 
L 3272 1691 
L 3078 1691 
Q 2634 1691 2465 1509 
Q 2297 1328 2297 856 
L 2297 109 
Q 2297 -581 2036 -812 
Q 1775 -1044 997 -1044 
L 800 -1044 
L 800 -594 
z
" transform="scale(0.015625)"/>
     </defs>
     <use xlink:href="#DejaVuSans-2c" transform="translate(0 0.578125)"/>
     <use xlink:href="#DejaVuSans-2f" transform="translate(29.492188 0.578125)"/>
     <use xlink:href="#DejaVuSans-57" transform="translate(86.162109 -14.421826) scale(0.7)"/>
     <use xlink:href="#DejaVuSans-58" transform="translate(113.608398 -14.421826) scale(0.7)"/>
     <use xlink:href="#DejaVuSans-55" transform="translate(157.973633 -14.421826) scale(0.7)"/>
     <use xlink:href="#DejaVuSans-51" transform="translate(185.35293 -14.421826) scale(0.7)"/>
     <use xlink:href="#DejaVuSans-56" transform="translate(229.718164 -14.421826) scale(0.7)"/>
     <use xlink:href="#DejaVuSans-20" transform="translate(288.404688 0.578125)"/>
     <use xlink:href="#DejaVuSans-5f" transform="translate(391.676172 0.578125)"/>
     <use xlink:href="#DejaVuSans-5e" transform="translate(425.367578 0.578125)"/>
     <use xlink:href="#DejaVuSans-46" transform="translate(521.461003 0.578125)"/>
     <use xlink:href="#DejaVuSans-52" transform="translate(576.441472 0.578125)"/>
     <use xlink:href="#DejaVuSans-50" transform="translate(637.623113 0.578125)"/>
     <use xlink:href="#DejaVuSans-53" transform="translate(735.035222 0.578125)"/>
     <use xlink:href="#DejaVuSans-4f" transform="translate(798.511785 0.578125)"/>
     <use xlink:href="#DejaVuSans-48" transform="translate(826.294988 0.578125)"/>
     <use xlink:href="#DejaVuSans-57" transform="translate(887.818425 0.578125)"/>
     <use xlink:href="#DejaVuSans-48" transform="translate(927.02741 0.578125)"/>
     <use xlink:href="#DejaVuSans-47" transform="translate(988.550847 0.578125)"/>
     <use xlink:href="#DejaVuSans-3" transform="translate(1052.02741 0.578125)"/>
     <use xlink:href="#DejaVuSans-57" transform="translate(1083.814519 0.578125)"/>
     <use xlink:href="#DejaVuSans-58" transform="translate(1123.023503 0.578125)"/>
     <use xlink:href="#DejaVuSans-55" transform="translate(1186.40241 0.578125)"/>
     <use xlink:href="#DejaVuSans-51" transform="translate(1225.515691 0.578125)"/>
     <use xlink:href="#DejaVuSans-56" transform="translate(1288.894597 0.578125)"/>
     <use xlink:href="#DejaVuSans-3" transform="translate(1340.994207 0.578125)"/>
     <use xlink:href="#DejaVuSans-45" transform="translate(1372.781316 0.578125)"/>
     <use xlink:href="#DejaVuSans-48" transform="translate(1436.257878 0.578125)"/>
     <use xlink:href="#DejaVuSans-49" transform="translate(1497.781316 0.578125)"/>
     <use xlink:href="#DejaVuSans-52" transform="translate(1532.986394 0.578125)"/>
     <use xlink:href="#DejaVuSans-55" transform="translate(1594.168035 0.578125)"/>
     <use xlink:href="#DejaVuSans-48" transform="translate(1633.281316 0.578125)"/>
     <use xlink:href="#DejaVuSans-3" transform="translate(1694.804753 0.578125)"/>
     <use xlink:href="#DejaVuSans-49" transform="translate(1726.591863 0.578125)"/>
     <use xlink:href="#DejaVuSans-4c" transform="translate(1761.796941 0.578125)"/>
     <use xlink:href="#DejaVuSans-55" transform="translate(1789.580144 0.578125)"/>
     <use xlink:href="#DejaVuSans-56" transform="translate(1830.693425 0.578125)"/>
     <use xlink:href="#DejaVuSans-57" transform="translate(1882.793035 0.578125)"/>
     <use xlink:href="#DejaVuSans-3" transform="translate(1922.002019 0.578125)"/>
     <use xlink:href="#DejaVuSans-59" transform="translate(1953.789128 0.578125)"/>
     <use xlink:href="#DejaVuSans-44" transform="translate(2012.968816 0.578125)"/>
     <use xlink:href="#DejaVuSans-4f" transform="translate(2074.248113 0.578125)"/>
     <use xlink:href="#DejaVuSans-4c" transform="translate(2102.031316 0.578125)"/>
     <use xlink:href="#DejaVuSans-47" transform="translate(2129.814519 0.578125)"/>
     <use xlink:href="#DejaVuSans-3" transform="translate(2193.291082 0.578125)"/>
     <use xlink:href="#DejaVuSans-47" transform="translate(2225.078191 0.578125)"/>
     <use xlink:href="#DejaVuSans-4c" transform="translate(2288.554753 0.578125)"/>
     <use xlink:href="#DejaVuSans-56" transform="translate(2316.337957 0.578125)"/>
     <use xlink:href="#DejaVuSans-46" transform="translate(2368.437566 0.578125)"/>
     <use xlink:href="#DejaVuSans-4f" transform="translate(2423.418035 0.578125)"/>
     <use xlink:href="#DejaVuSans-52" transform="translate(2451.201238 0.578125)"/>
     <use xlink:href="#DejaVuSans-56" transform="translate(2512.382878 0.578125)"/>
     <use xlink:href="#DejaVuSans-58" transform="translate(2564.482488 0.578125)"/>
     <use xlink:href="#DejaVuSans-55" transform="translate(2627.861394 0.578125)"/>
     <use xlink:href="#DejaVuSans-48" transform="translate(2666.974675 0.578125)"/>
     <use xlink:href="#DejaVuSans-60" transform="translate(2760.968491 0.578125)"/>
     <use xlink:href="#DejaVuSans-5f" transform="translate(2824.591538 0.578125)"/>
    </g>
   </g>
   <g id="text_8">
    <!-- $\mathrm{IL}_{\mathrm{turns}} = 0$   is the conformant target  —  disclosure in the first message -->
    <g style="fill: #94a3b8" transform="translate(123.75 212.154828) scale(0.1 -0.1)">
     <defs>
      <path id="DejaVuSansDisplay-4" d="M 313 1978 
L 6088 1978 
L 6088 1528 
L 313 1528 
L 313 1978 
z
" transform="scale(0.015625)"/>
     </defs>
     <use xlink:href="#DejaVuSans-2c" transform="translate(0 0.015625)"/>
     <use xlink:href="#DejaVuSans-2f" transform="translate(29.492188 0.015625)"/>
     <use xlink:href="#DejaVuSans-57" transform="translate(86.162109 -14.984326) scale(0.7)"/>
     <use xlink:href="#DejaVuSans-58" transform="translate(113.608398 -14.984326) scale(0.7)"/>
     <use xlink:href="#DejaVuSans-55" transform="translate(157.973633 -14.984326) scale(0.7)"/>
     <use xlink:href="#DejaVuSans-51" transform="translate(185.35293 -14.984326) scale(0.7)"/>
     <use xlink:href="#DejaVuSans-56" transform="translate(229.718164 -14.984326) scale(0.7)"/>
     <use xlink:href="#DejaVuSans-20" transform="translate(288.404688 0.015625)"/>
     <use xlink:href="#DejaVuSans-13" transform="translate(391.676172 0.015625)"/>
     <use xlink:href="#DejaVuSans-3" transform="translate(455.299219 0.015625)"/>
     <use xlink:href="#DejaVuSans-3" transform="translate(487.086328 0.015625)"/>
     <use xlink:href="#DejaVuSans-3" transform="translate(518.873438 0.015625)"/>
     <use xlink:href="#DejaVuSans-4c" transform="translate(550.660547 0.015625)"/>
     <use xlink:href="#DejaVuSans-56" transform="translate(578.44375 0.015625)"/>
     <use xlink:href="#DejaVuSans-3" transform="translate(630.543359 0.015625)"/>
     <use xlink:href="#DejaVuSans-57" transform="translate(662.330469 0.015625)"/>
     <use xlink:href="#DejaVuSans-4b" transform="translate(701.539453 0.015625)"/>
     <use xlink:href="#DejaVuSans-48" transform="translate(764.918359 0.015625)"/>
     <use xlink:href="#DejaVuSans-3" transform="translate(826.441797 0.015625)"/>
     <use xlink:href="#DejaVuSans-46" transform="translate(858.228906 0.015625)"/>
     <use xlink:href="#DejaVuSans-52" transform="translate(913.209375 0.015625)"/>
     <use xlink:href="#DejaVuSans-51" transform="translate(974.391016 0.015625)"/>
     <use xlink:href="#DejaVuSans-49" transform="translate(1037.769922 0.015625)"/>
     <use xlink:href="#DejaVuSans-52" transform="translate(1072.975 0.015625)"/>
     <use xlink:href="#DejaVuSans-55" transform="translate(1134.156641 0.015625)"/>
     <use xlink:href="#DejaVuSans-50" transform="translate(1173.269922 0.015625)"/>
     <use xlink:href="#DejaVuSans-44" transform="translate(1270.682031 0.015625)"/>
     <use xlink:href="#DejaVuSans-51" transform="translate(1331.961328 0.015625)"/>
     <use xlink:href="#DejaVuSans-57" transform="translate(1395.340234 0.015625)"/>
     <use xlink:href="#DejaVuSans-3" transform="translate(1434.549219 0.015625)"/>
     <use xlink:href="#DejaVuSans-57" transform="translate(1466.336328 0.015625)"/>
     <use xlink:href="#DejaVuSans-44" transform="translate(1505.545312 0.015625)"/>
     <use xlink:href="#DejaVuSans-55" transform="translate(1566.824609 0.015625)"/>
     <use xlink:href="#DejaVuSans-4a" transform="translate(1605.937891 0.015625)"/>
     <use xlink:href="#DejaVuSans-48" transform="translate(1669.414453 0.015625)"/>
     <use xlink:href="#DejaVuSans-57" transform="translate(1730.937891 0.015625)"/>
     <use xlink:href="#DejaVuSans-3" transform="translate(1770.146875 0.015625)"/>
     <use xlink:href="#DejaVuSans-3" transform="translate(1801.933984 0.015625)"/>
     <use xlink:href="#DejaVuSansDisplay-4" transform="translate(1833.721094 0.015625)"/>
     <use xlink:href="#DejaVuSans-3" transform="translate(1933.721094 0.015625)"/>
     <use xlink:href="#DejaVuSans-3" transform="translate(1965.508203 0.015625)"/>
     <use xlink:href="#DejaVuSans-47" transform="translate(1997.295312 0.015625)"/>
     <use xlink:href="#DejaVuSans-4c" transform="translate(2060.771875 0.015625)"/>
     <use xlink:href="#DejaVuSans-56" transform="translate(2088.555078 0.015625)"/>
     <use xlink:href="#DejaVuSans-46" transform="translate(2140.654687 0.015625)"/>
     <use xlink:href="#DejaVuSans-4f" transform="translate(2195.635156 0.015625)"/>
     <use xlink:href="#DejaVuSans-52" transform="translate(2223.418359 0.015625)"/>
     <use xlink:href="#DejaVuSans-56" transform="translate(2284.6 0.015625)"/>
     <use xlink:href="#DejaVuSans-58" transform="translate(2336.699609 0.015625)"/>
     <use xlink:href="#DejaVuSans-55" transform="translate(2400.078516 0.015625)"/>
     <use xlink:href="#DejaVuSans-48" transform="translate(2439.191797 0.015625)"/>
     <use xlink:href="#DejaVuSans-3" transform="translate(2500.715234 0.015625)"/>
     <use xlink:href="#DejaVuSans-4c" transform="translate(2532.502344 0.015625)"/>
     <use xlink:href="#DejaVuSans-51" transform="translate(2560.285547 0.015625)"/>
     <use xlink:href="#DejaVuSans-3" transform="translate(2623.664453 0.015625)"/>
     <use xlink:href="#DejaVuSans-57" transform="translate(2655.451562 0.015625)"/>
     <use xlink:href="#DejaVuSans-4b" transform="translate(2694.660547 0.015625)"/>
     <use xlink:href="#DejaVuSans-48" transform="translate(2758.039453 0.015625)"/>
     <use xlink:href="#DejaVuSans-3" transform="translate(2819.562891 0.015625)"/>
     <use xlink:href="#DejaVuSans-49" transform="translate(2851.35 0.015625)"/>
     <use xlink:href="#DejaVuSans-4c" transform="translate(2886.555078 0.015625)"/>
     <use xlink:href="#DejaVuSans-55" transform="translate(2914.338281 0.015625)"/>
     <use xlink:href="#DejaVuSans-56" transform="translate(2955.451562 0.015625)"/>
     <use xlink:href="#DejaVuSans-57" transform="translate(3007.551172 0.015625)"/>
     <use xlink:href="#DejaVuSans-3" transform="translate(3046.760156 0.015625)"/>
     <use xlink:href="#DejaVuSans-50" transform="translate(3078.547266 0.015625)"/>
     <use xlink:href="#DejaVuSans-48" transform="translate(3175.959375 0.015625)"/>
     <use xlink:href="#DejaVuSans-56" transform="translate(3237.482812 0.015625)"/>
     <use xlink:href="#DejaVuSans-56" transform="translate(3289.582422 0.015625)"/>
     <use xlink:href="#DejaVuSans-44" transform="translate(3341.682031 0.015625)"/>
     <use xlink:href="#DejaVuSans-4a" transform="translate(3402.961328 0.015625)"/>
     <use xlink:href="#DejaVuSans-48" transform="translate(3466.437891 0.015625)"/>
    </g>
   </g>
   <g id="text_9">
    <!-- Pre-Disclosure PHI Exposure -->
    <g style="fill: #facc15" transform="translate(37.89 253.190437) scale(0.1 -0.1)">
     <defs>
      <path id="DejaVuSans-Bold-10" d="M 347 2297 
L 2309 2297 
L 2309 1388 
L 347 1388 
L 347 2297 
z
" transform="scale(0.015625)"/>
      <path id="DejaVuSans-Bold-27" d="M 1791 3756 
L 1791 909 
L 2222 909 
Q 2959 909 3348 1275 
Q 3738 1641 3738 2338 
Q 3738 3031 3350 3393 
Q 2963 3756 2222 3756 
L 1791 3756 
z
M 588 4666 
L 1856 4666 
Q 2919 4666 3439 4514 
Q 3959 4363 4331 4000 
Q 4659 3684 4818 3271 
Q 4978 2859 4978 2338 
Q 4978 1809 4818 1395 
Q 4659 981 4331 666 
Q 3956 303 3431 151 
Q 2906 0 1856 0 
L 588 0 
L 588 4666 
z
" transform="scale(0.015625)"/>
      <path id="DejaVuSans-Bold-56" d="M 3272 3391 
L 3272 2541 
Q 2913 2691 2578 2766 
Q 2244 2841 1947 2841 
Q 1628 2841 1473 2761 
Q 1319 2681 1319 2516 
Q 1319 2381 1436 2309 
Q 1553 2238 1856 2203 
L 2053 2175 
Q 2913 2066 3209 1816 
Q 3506 1566 3506 1031 
Q 3506 472 3093 190 
Q 2681 -91 1863 -91 
Q 1516 -91 1145 -36 
Q 775 19 384 128 
L 384 978 
Q 719 816 1070 734 
Q 1422 653 1784 653 
Q 2113 653 2278 743 
Q 2444 834 2444 1013 
Q 2444 1163 2330 1236 
Q 2216 1309 1875 1350 
L 1678 1375 
Q 931 1469 631 1722 
Q 331 1975 331 2491 
Q 331 3047 712 3315 
Q 1094 3584 1881 3584 
Q 2191 3584 2531 3537 
Q 2872 3491 3272 3391 
z
" transform="scale(0.015625)"/>
      <path id="DejaVuSans-Bold-46" d="M 3366 3391 
L 3366 2478 
Q 3138 2634 2908 2709 
Q 2678 2784 2431 2784 
Q 1963 2784 1702 2511 
Q 1441 2238 1441 1747 
Q 1441 1256 1702 982 
Q 1963 709 2431 709 
Q 2694 709 2930 787 
Q 3166 866 3366 1019 
L 3366 103 
Q 3103 6 2833 -42 
Q 2563 -91 2291 -91 
Q 1344 -91 809 395 
Q 275 881 275 1747 
Q 275 2613 809 3098 
Q 1344 3584 2291 3584 
Q 2566 3584 2833 3536 
Q 3100 3488 3366 3391 
z
" transform="scale(0.015625)"/>
      <path id="DejaVuSans-Bold-4f" d="M 538 4863 
L 1656 4863 
L 1656 0 
L 538 0 
L 538 4863 
z
" transform="scale(0.015625)"/>
      <path id="DejaVuSans-Bold-2b" d="M 588 4666 
L 1791 4666 
L 1791 2888 
L 3566 2888 
L 3566 4666 
L 4769 4666 
L 4769 0 
L 3566 0 
L 3566 1978 
L 1791 1978 
L 1791 0 
L 588 0 
L 588 4666 
z
" transform="scale(0.015625)"/>
      <path id="DejaVuSans-Bold-5b" d="M 1422 1791 
L 159 3500 
L 1344 3500 
L 2059 2463 
L 2784 3500 
L 3969 3500 
L 2706 1797 
L 4031 0 
L 2847 0 
L 2059 1106 
L 1281 0 
L 97 0 
L 1422 1791 
z
" transform="scale(0.015625)"/>
      <path id="DejaVuSans-Bold-53" d="M 1656 506 
L 1656 -1331 
L 538 -1331 
L 538 3500 
L 1656 3500 
L 1656 2988 
Q 1888 3294 2169 3439 
Q 2450 3584 2816 3584 
Q 3463 3584 3878 3070 
Q 4294 2556 4294 1747 
Q 4294 938 3878 423 
Q 3463 -91 2816 -91 
Q 2450 -91 2169 54 
Q 1888 200 1656 506 
z
M 2400 2772 
Q 2041 2772 1848 2508 
Q 1656 2244 1656 1747 
Q 1656 1250 1848 986 
Q 2041 722 2400 722 
Q 2759 722 2948 984 
Q 3138 1247 3138 1747 
Q 3138 2247 2948 2509 
Q 2759 2772 2400 2772 
z
" transform="scale(0.015625)"/>
     </defs>
     <use xlink:href="#DejaVuSans-Bold-33"/>
     <use xlink:href="#DejaVuSans-Bold-55" transform="translate(73.296875 0)"/>
     <use xlink:href="#DejaVuSans-Bold-48" transform="translate(122.609375 0)"/>
     <use xlink:href="#DejaVuSans-Bold-10" transform="translate(190.4375 0)"/>
     <use xlink:href="#DejaVuSans-Bold-27" transform="translate(231.9375 0)"/>
     <use xlink:href="#DejaVuSans-Bold-4c" transform="translate(314.953125 0)"/>
     <use xlink:href="#DejaVuSans-Bold-56" transform="translate(349.234375 0)"/>
     <use xlink:href="#DejaVuSans-Bold-46" transform="translate(408.75 0)"/>
     <use xlink:href="#DejaVuSans-Bold-4f" transform="translate(468.03125 0)"/>
     <use xlink:href="#DejaVuSans-Bold-52" transform="translate(502.3125 0)"/>
     <use xlink:href="#DejaVuSans-Bold-56" transform="translate(571.015625 0)"/>
     <use xlink:href="#DejaVuSans-Bold-58" transform="translate(630.53125 0)"/>
     <use xlink:href="#DejaVuSans-Bold-55" transform="translate(701.71875 0)"/>
     <use xlink:href="#DejaVuSans-Bold-48" transform="translate(751.03125 0)"/>
     <use xlink:href="#DejaVuSans-Bold-3" transform="translate(818.859375 0)"/>
     <use xlink:href="#DejaVuSans-Bold-33" transform="translate(853.671875 0)"/>
     <use xlink:href="#DejaVuSans-Bold-2b" transform="translate(926.96875 0)"/>
     <use xlink:href="#DejaVuSans-Bold-2c" transform="translate(1010.65625 0)"/>
     <use xlink:href="#DejaVuSans-Bold-3" transform="translate(1047.859375 0)"/>
     <use xlink:href="#DejaVuSans-Bold-28" transform="translate(1082.671875 0)"/>
     <use xlink:href="#DejaVuSans-Bold-5b" transform="translate(1150.984375 0)"/>
     <use xlink:href="#DejaVuSans-Bold-53" transform="translate(1215.484375 0)"/>
     <use xlink:href="#DejaVuSans-Bold-52" transform="translate(1287.0625 0)"/>
     <use xlink:href="#DejaVuSans-Bold-56" transform="translate(1355.765625 0)"/>
     <use xlink:href="#DejaVuSans-Bold-58" transform="translate(1415.28125 0)"/>
     <use xlink:href="#DejaVuSans-Bold-55" transform="translate(1486.46875 0)"/>
     <use xlink:href="#DejaVuSans-Bold-48" transform="translate(1535.78125 0)"/>
    </g>
   </g>
   <g id="text_10">
    <!-- $E_{\mathrm{PHI}} = |\{\ f \in \mathtt{phi\_accessed} : t(f) &lt; t_{\mathrm{disclosure}}\ \}|$ -->
    <g style="fill: #67e8f9" transform="translate(163.275 274.405435) scale(0.125 -0.125)">
     <defs>
      <path id="DejaVuSans-Oblique-28" d="M 1081 4666 
L 4031 4666 
L 3928 4134 
L 1606 4134 
L 1338 2753 
L 3566 2753 
L 3463 2222 
L 1234 2222 
L 909 531 
L 3284 531 
L 3181 0 
L 172 0 
L 1081 4666 
z
" transform="scale(0.015625)"/>
      <path id="DejaVuSans-33" d="M 1259 4147 
L 1259 2394 
L 2053 2394 
Q 2494 2394 2734 2622 
Q 2975 2850 2975 3272 
Q 2975 3691 2734 3919 
Q 2494 4147 2053 4147 
L 1259 4147 
z
M 628 4666 
L 2053 4666 
Q 2838 4666 3239 4311 
Q 3641 3956 3641 3272 
Q 3641 2581 3239 2228 
Q 2838 1875 2053 1875 
L 1259 1875 
L 1259 0 
L 628 0 
L 628 4666 
z
" transform="scale(0.015625)"/>
      <path id="DejaVuSans-2b" d="M 628 4666 
L 1259 4666 
L 1259 2753 
L 3553 2753 
L 3553 4666 
L 4184 4666 
L 4184 0 
L 3553 0 
L 3553 2222 
L 1259 2222 
L 1259 0 
L 628 0 
L 628 4666 
z
" transform="scale(0.015625)"/>
      <path id="DejaVuSans-Oblique-49" d="M 3059 4863 
L 2969 4384 
L 2419 4384 
Q 2106 4384 1964 4261 
Q 1822 4138 1753 3809 
L 1691 3500 
L 2638 3500 
L 2553 3053 
L 1606 3053 
L 1013 0 
L 434 0 
L 1031 3053 
L 481 3053 
L 563 3500 
L 1113 3500 
L 1159 3744 
Q 1278 4363 1576 4613 
Q 1875 4863 2516 4863 
L 3059 4863 
z
" transform="scale(0.015625)"/>
      <path id="DejaVuSans-c92" d="M 1072 1959 
Q 1094 1728 1291 1353 
Q 1522 919 1959 675 
Q 2388 438 2850 434 
L 5028 434 
L 5028 -63 
L 2850 -63 
Q 2250 -63 1695 246 
Q 1141 556 844 1106 
Q 547 1656 547 2241 
Q 547 2819 844 3369 
Q 1141 3919 1695 4231 
Q 2250 4544 2850 4544 
L 5028 4544 
L 5028 4047 
L 2850 4047 
Q 2388 4044 1959 3803 
Q 1525 3556 1291 3125 
Q 1091 2750 1063 2459 
L 5028 2459 
L 5028 1959 
L 1072 1959 
z
" transform="scale(0.015625)"/>
      <path id="DejaVuSansMono-53" d="M 1172 441 
L 1172 -1331 
L 594 -1331 
L 594 3500 
L 1172 3500 
L 1172 3053 
Q 1316 3313 1555 3448 
Q 1794 3584 2106 3584 
Q 2741 3584 3102 3093 
Q 3463 2603 3463 1734 
Q 3463 881 3100 395 
Q 2738 -91 2106 -91 
Q 1788 -91 1548 45 
Q 1309 181 1172 441 
z
M 2859 1747 
Q 2859 2416 2648 2756 
Q 2438 3097 2022 3097 
Q 1603 3097 1387 2755 
Q 1172 2413 1172 1747 
Q 1172 1084 1387 740 
Q 1603 397 2022 397 
Q 2438 397 2648 737 
Q 2859 1078 2859 1747 
z
" transform="scale(0.015625)"/>
      <path id="DejaVuSansMono-4b" d="M 3284 2169 
L 3284 0 
L 2706 0 
L 2706 2169 
Q 2706 2641 2540 2862 
Q 2375 3084 2022 3084 
Q 1619 3084 1401 2798 
Q 1184 2513 1184 1978 
L 1184 0 
L 609 0 
L 609 4863 
L 1184 4863 
L 1184 2975 
Q 1338 3275 1600 3429 
Q 1863 3584 2222 3584 
Q 2756 3584 3020 3232 
Q 3284 2881 3284 2169 
z
" transform="scale(0.015625)"/>
      <path id="DejaVuSansMono-4c" d="M 800 3500 
L 2272 3500 
L 2272 447 
L 3413 447 
L 3413 0 
L 556 0 
L 556 447 
L 1697 447 
L 1697 3053 
L 800 3053 
L 800 3500 
z
M 1697 4863 
L 2272 4863 
L 2272 4134 
L 1697 4134 
L 1697 4863 
z
" transform="scale(0.015625)"/>
      <path id="DejaVuSansMono-42" d="M 3853 -1259 
L 3853 -1509 
L 0 -1509 
L 0 -1259 
L 3853 -1259 
z
" transform="scale(0.015625)"/>
      <path id="DejaVuSansMono-44" d="M 2194 1759 
L 2003 1759 
Q 1500 1759 1245 1582 
Q 991 1406 991 1056 
Q 991 741 1181 566 
Q 1372 391 1709 391 
Q 2184 391 2456 720 
Q 2728 1050 2731 1631 
L 2731 1759 
L 2194 1759 
z
M 3309 1997 
L 3309 0 
L 2731 0 
L 2731 519 
Q 2547 206 2267 57 
Q 1988 -91 1588 -91 
Q 1053 -91 734 211 
Q 416 513 416 1019 
Q 416 1603 808 1906 
Q 1200 2209 1959 2209 
L 2731 2209 
L 2731 2300 
Q 2728 2719 2518 2908 
Q 2309 3097 1850 3097 
Q 1556 3097 1256 3012 
Q 956 2928 672 2766 
L 672 3341 
Q 991 3463 1283 3523 
Q 1575 3584 1850 3584 
Q 2284 3584 2592 3456 
Q 2900 3328 3091 3072 
Q 3209 2916 3259 2686 
Q 3309 2456 3309 1997 
z
" transform="scale(0.015625)"/>
      <path id="DejaVuSansMono-46" d="M 3316 178 
Q 3084 44 2839 -23 
Q 2594 -91 2338 -91 
Q 1525 -91 1067 396 
Q 609 884 609 1747 
Q 609 2609 1067 3096 
Q 1525 3584 2338 3584 
Q 2591 3584 2831 3518 
Q 3072 3453 3316 3316 
L 3316 2713 
Q 3088 2916 2858 3006 
Q 2628 3097 2338 3097 
Q 1797 3097 1506 2747 
Q 1216 2397 1216 1747 
Q 1216 1100 1508 748 
Q 1800 397 2338 397 
Q 2638 397 2875 489 
Q 3113 581 3316 775 
L 3316 178 
z
" transform="scale(0.015625)"/>
      <path id="DejaVuSansMono-48" d="M 3475 1894 
L 3475 1613 
L 984 1613 
L 984 1594 
Q 984 1022 1282 709 
Q 1581 397 2125 397 
Q 2400 397 2700 484 
Q 3000 572 3341 750 
L 3341 178 
Q 3013 44 2708 -23 
Q 2403 -91 2119 -91 
Q 1303 -91 843 398 
Q 384 888 384 1747 
Q 384 2584 834 3084 
Q 1284 3584 2034 3584 
Q 2703 3584 3089 3131 
Q 3475 2678 3475 1894 
z
M 2900 2063 
Q 2888 2569 2661 2833 
Q 2434 3097 2009 3097 
Q 1594 3097 1325 2822 
Q 1056 2547 1006 2059 
L 2900 2063 
z
" transform="scale(0.015625)"/>
      <path id="DejaVuSansMono-56" d="M 3041 3378 
L 3041 2816 
Q 2794 2959 2544 3031 
Q 2294 3103 2034 3103 
Q 1644 3103 1451 2976 
Q 1259 2850 1259 2591 
Q 1259 2356 1403 2240 
Q 1547 2125 2119 2016 
L 2350 1972 
Q 2778 1891 2998 1647 
Q 3219 1403 3219 1013 
Q 3219 494 2850 201 
Q 2481 -91 1825 -91 
Q 1566 -91 1281 -36 
Q 997 19 666 128 
L 666 722 
Q 988 556 1281 473 
Q 1575 391 1838 391 
Q 2219 391 2428 545 
Q 2638 700 2638 978 
Q 2638 1378 1872 1531 
L 1847 1538 
L 1631 1581 
Q 1134 1678 906 1908 
Q 678 2138 678 2534 
Q 678 3038 1018 3311 
Q 1359 3584 1991 3584 
Q 2272 3584 2531 3532 
Q 2791 3481 3041 3378 
z
" transform="scale(0.015625)"/>
      <path id="DejaVuSansMono-47" d="M 2681 3053 
L 2681 4863 
L 3256 4863 
L 3256 0 
L 2681 0 
L 2681 441 
Q 2538 181 2298 45 
Q 2059 -91 1747 -91 
Q 1113 -91 748 401 
Q 384 894 384 1759 
Q 384 2613 750 3098 
Q 1116 3584 1747 3584 
Q 2063 3584 2303 3448 
Q 2544 3313 2681 3053 
z
M 991 1747 
Q 991 1078 1203 737 
Q 1416 397 1831 397 
Q 2247 397 2464 740 
Q 2681 1084 2681 1747 
Q 2681 2413 2464 2755 
Q 2247 3097 1831 3097 
Q 1416 3097 1203 2756 
Q 991 2416 991 1747 
z
" transform="scale(0.015625)"/>
      <path id="DejaVuSans-1f" d="M 4684 3150 
L 1459 2003 
L 4684 863 
L 4684 294 
L 678 1747 
L 678 2266 
L 4684 3719 
L 4684 3150 
z
" transform="scale(0.015625)"/>
     </defs>
     <use xlink:href="#DejaVuSans-Oblique-28" transform="translate(0 0.578125)"/>
     <use xlink:href="#DejaVuSans-33" transform="translate(63.183594 -14.421826) scale(0.7)"/>
     <use xlink:href="#DejaVuSans-2b" transform="translate(105.395508 -14.421826) scale(0.7)"/>
     <use xlink:href="#DejaVuSans-2c" transform="translate(158.032227 -14.421826) scale(0.7)"/>
     <use xlink:href="#DejaVuSans-20" transform="translate(200.893555 0.578125)"/>
     <use xlink:href="#DejaVuSans-5f" transform="translate(304.165039 0.578125)"/>
     <use xlink:href="#DejaVuSans-5e" transform="translate(337.856445 0.578125)"/>
     <use xlink:href="#DejaVuSans-Oblique-49" transform="translate(433.949871 0.578125)"/>
     <use xlink:href="#DejaVuSans-c92" transform="translate(488.637371 0.578125)"/>
     <use xlink:href="#DejaVuSansMono-53" transform="translate(595.229167 0.578125)"/>
     <use xlink:href="#DejaVuSansMono-4b" transform="translate(655.434246 0.578125)"/>
     <use xlink:href="#DejaVuSansMono-4c" transform="translate(715.639324 0.578125)"/>
     <use xlink:href="#DejaVuSansMono-42" transform="translate(775.844402 0.578125)"/>
     <use xlink:href="#DejaVuSansMono-44" transform="translate(836.04948 0.578125)"/>
     <use xlink:href="#DejaVuSansMono-46" transform="translate(896.254558 0.578125)"/>
     <use xlink:href="#DejaVuSansMono-46" transform="translate(956.459636 0.578125)"/>
     <use xlink:href="#DejaVuSansMono-48" transform="translate(1016.664714 0.578125)"/>
     <use xlink:href="#DejaVuSansMono-56" transform="translate(1076.869792 0.578125)"/>
     <use xlink:href="#DejaVuSansMono-56" transform="translate(1137.074871 0.578125)"/>
     <use xlink:href="#DejaVuSansMono-48" transform="translate(1197.279949 0.578125)"/>
     <use xlink:href="#DejaVuSansMono-47" transform="translate(1257.485027 0.578125)"/>
     <use xlink:href="#DejaVuSans-1d" transform="translate(1337.172527 0.578125)"/>
     <use xlink:href="#DejaVuSans-Oblique-57" transform="translate(1390.346355 0.578125)"/>
     <use xlink:href="#DejaVuSans-b" transform="translate(1429.555339 0.578125)"/>
     <use xlink:href="#DejaVuSans-Oblique-49" transform="translate(1468.569011 0.578125)"/>
     <use xlink:href="#DejaVuSans-c" transform="translate(1503.774089 0.578125)"/>
     <use xlink:href="#DejaVuSans-1f" transform="translate(1562.270183 0.578125)"/>
     <use xlink:href="#DejaVuSans-Oblique-57" transform="translate(1665.541667 0.578125)"/>
     <use xlink:href="#DejaVuSans-47" transform="translate(1704.750652 -14.421826) scale(0.7)"/>
     <use xlink:href="#DejaVuSans-4c" transform="translate(1749.184246 -14.421826) scale(0.7)"/>
     <use xlink:href="#DejaVuSans-56" transform="translate(1768.632488 -14.421826) scale(0.7)"/>
     <use xlink:href="#DejaVuSans-46" transform="translate(1805.102214 -14.421826) scale(0.7)"/>
     <use xlink:href="#DejaVuSans-4f" transform="translate(1843.588542 -14.421826) scale(0.7)"/>
     <use xlink:href="#DejaVuSans-52" transform="translate(1863.036785 -14.421826) scale(0.7)"/>
     <use xlink:href="#DejaVuSans-56" transform="translate(1905.863933 -14.421826) scale(0.7)"/>
     <use xlink:href="#DejaVuSans-58" transform="translate(1942.33366 -14.421826) scale(0.7)"/>
     <use xlink:href="#DejaVuSans-55" transform="translate(1986.698894 -14.421826) scale(0.7)"/>
     <use xlink:href="#DejaVuSans-48" transform="translate(2014.078191 -14.421826) scale(0.7)"/>
     <use xlink:href="#DejaVuSans-60" transform="translate(2092.349351 0.578125)"/>
     <use xlink:href="#DejaVuSans-5f" transform="translate(2155.972397 0.578125)"/>
    </g>
   </g>
   <g id="text_11">
    <!-- PDX-01 fires when $E_{\mathrm{PHI}} &gt; 0$  ·  High IL + $E_{\mathrm{PHI}}=0$: bad practice, not a breach  ·  Low IL + $E_{\mathrm{PHI}}&gt;0$: critical -->
    <g style="fill: #94a3b8" transform="translate(57.52 302.392087) scale(0.095 -0.095)">
     <defs>
      <path id="DejaVuSans-3b" d="M 403 4666 
L 1081 4666 
L 2241 2931 
L 3406 4666 
L 4084 4666 
L 2584 2425 
L 4184 0 
L 3506 0 
L 2194 1984 
L 872 0 
L 191 0 
L 1856 2491 
L 403 4666 
z
" transform="scale(0.015625)"/>
      <path id="DejaVuSans-5a" d="M 269 3500 
L 844 3500 
L 1563 769 
L 2278 3500 
L 2956 3500 
L 3675 769 
L 4391 3500 
L 4966 3500 
L 4050 0 
L 3372 0 
L 2619 2869 
L 1863 0 
L 1184 0 
L 269 3500 
z
" transform="scale(0.015625)"/>
      <path id="DejaVuSans-21" d="M 678 3150 
L 678 3719 
L 4684 2266 
L 4684 1747 
L 678 294 
L 678 863 
L 3897 2003 
L 678 3150 
z
" transform="scale(0.015625)"/>
      <path id="DejaVuSans-e" d="M 2944 4013 
L 2944 2272 
L 4684 2272 
L 4684 1741 
L 2944 1741 
L 2944 0 
L 2419 0 
L 2419 1741 
L 678 1741 
L 678 2272 
L 2419 2272 
L 2419 4013 
L 2944 4013 
z
" transform="scale(0.015625)"/>
      <path id="DejaVuSans-f" d="M 750 794 
L 1409 794 
L 1409 256 
L 897 -744 
L 494 -744 
L 750 256 
L 750 794 
z
" transform="scale(0.015625)"/>
     </defs>
     <use xlink:href="#DejaVuSans-33" transform="translate(0 0.015625)"/>
     <use xlink:href="#DejaVuSans-27" transform="translate(60.302734 0.015625)"/>
     <use xlink:href="#DejaVuSans-3b" transform="translate(137.304688 0.015625)"/>
     <use xlink:href="#DejaVuSans-10" transform="translate(200.810547 0.015625)"/>
     <use xlink:href="#DejaVuSans-13" transform="translate(236.894531 0.015625)"/>
     <use xlink:href="#DejaVuSans-14" transform="translate(300.517578 0.015625)"/>
     <use xlink:href="#DejaVuSans-3" transform="translate(364.140625 0.015625)"/>
     <use xlink:href="#DejaVuSans-49" transform="translate(395.927734 0.015625)"/>
     <use xlink:href="#DejaVuSans-4c" transform="translate(431.132812 0.015625)"/>
     <use xlink:href="#DejaVuSans-55" transform="translate(458.916016 0.015625)"/>
     <use xlink:href="#DejaVuSans-48" transform="translate(498.029297 0.015625)"/>
     <use xlink:href="#DejaVuSans-56" transform="translate(559.552734 0.015625)"/>
     <use xlink:href="#DejaVuSans-3" transform="translate(611.652344 0.015625)"/>
     <use xlink:href="#DejaVuSans-5a" transform="translate(643.439453 0.015625)"/>
     <use xlink:href="#DejaVuSans-4b" transform="translate(725.226562 0.015625)"/>
     <use xlink:href="#DejaVuSans-48" transform="translate(788.605469 0.015625)"/>
     <use xlink:href="#DejaVuSans-51" transform="translate(850.128906 0.015625)"/>
     <use xlink:href="#DejaVuSans-3" transform="translate(913.507812 0.015625)"/>
     <use xlink:href="#DejaVuSans-Oblique-28" transform="translate(945.294922 0.015625)"/>
     <use xlink:href="#DejaVuSans-33" transform="translate(1008.478516 -14.984326) scale(0.7)"/>
     <use xlink:href="#DejaVuSans-2b" transform="translate(1050.69043 -14.984326) scale(0.7)"/>
     <use xlink:href="#DejaVuSans-2c" transform="translate(1103.327148 -14.984326) scale(0.7)"/>
     <use xlink:href="#DejaVuSans-21" transform="translate(1146.188477 0.015625)"/>
     <use xlink:href="#DejaVuSans-13" transform="translate(1249.459961 0.015625)"/>
     <use xlink:href="#DejaVuSans-3" transform="translate(1313.083008 0.015625)"/>
     <use xlink:href="#DejaVuSans-3" transform="translate(1344.870117 0.015625)"/>
     <use xlink:href="#DejaVuSans-79" transform="translate(1376.657227 0.015625)"/>
     <use xlink:href="#DejaVuSans-3" transform="translate(1408.444336 0.015625)"/>
     <use xlink:href="#DejaVuSans-3" transform="translate(1440.231445 0.015625)"/>
     <use xlink:href="#DejaVuSans-2b" transform="translate(1472.018555 0.015625)"/>
     <use xlink:href="#DejaVuSans-4c" transform="translate(1547.213867 0.015625)"/>
     <use xlink:href="#DejaVuSans-4a" transform="translate(1574.99707 0.015625)"/>
     <use xlink:href="#DejaVuSans-4b" transform="translate(1638.473633 0.015625)"/>
     <use xlink:href="#DejaVuSans-3" transform="translate(1701.852539 0.015625)"/>
     <use xlink:href="#DejaVuSans-2c" transform="translate(1733.639648 0.015625)"/>
     <use xlink:href="#DejaVuSans-2f" transform="translate(1763.131836 0.015625)"/>
     <use xlink:href="#DejaVuSans-3" transform="translate(1818.844727 0.015625)"/>
     <use xlink:href="#DejaVuSans-e" transform="translate(1850.631836 0.015625)"/>
     <use xlink:href="#DejaVuSans-3" transform="translate(1934.420898 0.015625)"/>
     <use xlink:href="#DejaVuSans-Oblique-28" transform="translate(1966.208008 0.015625)"/>
     <use xlink:href="#DejaVuSans-33" transform="translate(2029.391602 -14.984326) scale(0.7)"/>
     <use xlink:href="#DejaVuSans-2b" transform="translate(2071.603516 -14.984326) scale(0.7)"/>
     <use xlink:href="#DejaVuSans-2c" transform="translate(2124.240234 -14.984326) scale(0.7)"/>
     <use xlink:href="#DejaVuSans-20" transform="translate(2167.101562 0.015625)"/>
     <use xlink:href="#DejaVuSans-13" transform="translate(2270.373047 0.015625)"/>
     <use xlink:href="#DejaVuSans-1d" transform="translate(2333.996094 0.015625)"/>
     <use xlink:href="#DejaVuSans-3" transform="translate(2367.6875 0.015625)"/>
     <use xlink:href="#DejaVuSans-45" transform="translate(2399.474609 0.015625)"/>
     <use xlink:href="#DejaVuSans-44" transform="translate(2462.951172 0.015625)"/>
     <use xlink:href="#DejaVuSans-47" transform="translate(2524.230469 0.015625)"/>
     <use xlink:href="#DejaVuSans-3" transform="translate(2587.707031 0.015625)"/>
     <use xlink:href="#DejaVuSans-53" transform="translate(2619.494141 0.015625)"/>
     <use xlink:href="#DejaVuSans-55" transform="translate(2682.970703 0.015625)"/>
     <use xlink:href="#DejaVuSans-44" transform="translate(2724.083984 0.015625)"/>
     <use xlink:href="#DejaVuSans-46" transform="translate(2785.363281 0.015625)"/>
     <use xlink:href="#DejaVuSans-57" transform="translate(2840.34375 0.015625)"/>
     <use xlink:href="#DejaVuSans-4c" transform="translate(2879.552734 0.015625)"/>
     <use xlink:href="#DejaVuSans-46" transform="translate(2907.335938 0.015625)"/>
     <use xlink:href="#DejaVuSans-48" transform="translate(2962.316406 0.015625)"/>
     <use xlink:href="#DejaVuSans-f" transform="translate(3023.839844 0.015625)"/>
     <use xlink:href="#DejaVuSans-3" transform="translate(3055.626953 0.015625)"/>
     <use xlink:href="#DejaVuSans-51" transform="translate(3087.414062 0.015625)"/>
     <use xlink:href="#DejaVuSans-52" transform="translate(3150.792969 0.015625)"/>
     <use xlink:href="#DejaVuSans-57" transform="translate(3211.974609 0.015625)"/>
     <use xlink:href="#DejaVuSans-3" transform="translate(3251.183594 0.015625)"/>
     <use xlink:href="#DejaVuSans-44" transform="translate(3282.970703 0.015625)"/>
     <use xlink:href="#DejaVuSans-3" transform="translate(3344.25 0.015625)"/>
     <use xlink:href="#DejaVuSans-45" transform="translate(3376.037109 0.015625)"/>
     <use xlink:href="#DejaVuSans-55" transform="translate(3439.513672 0.015625)"/>
     <use xlink:href="#DejaVuSans-48" transform="translate(3478.626953 0.015625)"/>
     <use xlink:href="#DejaVuSans-44" transform="translate(3540.150391 0.015625)"/>
     <use xlink:href="#DejaVuSans-46" transform="translate(3601.429688 0.015625)"/>
     <use xlink:href="#DejaVuSans-4b" transform="translate(3656.410156 0.015625)"/>
     <use xlink:href="#DejaVuSans-3" transform="translate(3719.789062 0.015625)"/>
     <use xlink:href="#DejaVuSans-3" transform="translate(3751.576172 0.015625)"/>
     <use xlink:href="#DejaVuSans-79" transform="translate(3783.363281 0.015625)"/>
     <use xlink:href="#DejaVuSans-3" transform="translate(3815.150391 0.015625)"/>
     <use xlink:href="#DejaVuSans-3" transform="translate(3846.9375 0.015625)"/>
     <use xlink:href="#DejaVuSans-2f" transform="translate(3878.724609 0.015625)"/>
     <use xlink:href="#DejaVuSans-52" transform="translate(3932.4375 0.015625)"/>
     <use xlink:href="#DejaVuSans-5a" transform="translate(3993.619141 0.015625)"/>
     <use xlink:href="#DejaVuSans-3" transform="translate(4075.40625 0.015625)"/>
     <use xlink:href="#DejaVuSans-2c" transform="translate(4107.193359 0.015625)"/>
     <use xlink:href="#DejaVuSans-2f" transform="translate(4136.685547 0.015625)"/>
     <use xlink:href="#DejaVuSans-3" transform="translate(4192.398438 0.015625)"/>
     <use xlink:href="#DejaVuSans-e" transform="translate(4224.185547 0.015625)"/>
     <use xlink:href="#DejaVuSans-3" transform="translate(4307.974609 0.015625)"/>
     <use xlink:href="#DejaVuSans-Oblique-28" transform="translate(4339.761719 0.015625)"/>
     <use xlink:href="#DejaVuSans-33" transform="translate(4402.945312 -14.984326) scale(0.7)"/>
     <use xlink:href="#DejaVuSans-2b" transform="translate(4445.157227 -14.984326) scale(0.7)"/>
     <use xlink:href="#DejaVuSans-2c" transform="translate(4497.793945 -14.984326) scale(0.7)"/>
     <use xlink:href="#DejaVuSans-21" transform="translate(4540.655273 0.015625)"/>
     <use xlink:href="#DejaVuSans-13" transform="translate(4643.926758 0.015625)"/>
     <use xlink:href="#DejaVuSans-1d" transform="translate(4707.549805 0.015625)"/>
     <use xlink:href="#DejaVuSans-3" transform="translate(4741.241211 0.015625)"/>
     <use xlink:href="#DejaVuSans-46" transform="translate(4773.02832 0.015625)"/>
     <use xlink:href="#DejaVuSans-55" transform="translate(4828.008789 0.015625)"/>
     <use xlink:href="#DejaVuSans-4c" transform="translate(4869.12207 0.015625)"/>
     <use xlink:href="#DejaVuSans-57" transform="translate(4896.905273 0.015625)"/>
     <use xlink:href="#DejaVuSans-4c" transform="translate(4936.114258 0.015625)"/>
     <use xlink:href="#DejaVuSans-46" transform="translate(4963.897461 0.015625)"/>
     <use xlink:href="#DejaVuSans-44" transform="translate(5018.87793 0.015625)"/>
     <use xlink:href="#DejaVuSans-4f" transform="translate(5080.157227 0.015625)"/>
    </g>
   </g>
   <g id="text_12">
    <!-- Determinism guarantee -->
    <g style="fill: #14b8a6" transform="translate(37.89 343.003237) scale(0.1 -0.1)">
     <defs>
      <path id="DejaVuSans-Bold-57" d="M 1759 4494 
L 1759 3500 
L 2913 3500 
L 2913 2700 
L 1759 2700 
L 1759 1216 
Q 1759 972 1856 886 
Q 1953 800 2241 800 
L 2816 800 
L 2816 0 
L 1856 0 
Q 1194 0 917 276 
Q 641 553 641 1216 
L 641 2700 
L 84 2700 
L 84 3500 
L 641 3500 
L 641 4494 
L 1759 4494 
z
" transform="scale(0.015625)"/>
      <path id="DejaVuSans-Bold-4a" d="M 2919 594 
Q 2688 288 2409 144 
Q 2131 0 1766 0 
Q 1125 0 706 504 
Q 288 1009 288 1791 
Q 288 2575 706 3076 
Q 1125 3578 1766 3578 
Q 2131 3578 2409 3434 
Q 2688 3291 2919 2981 
L 2919 3500 
L 4044 3500 
L 4044 353 
Q 4044 -491 3511 -936 
Q 2978 -1381 1966 -1381 
Q 1638 -1381 1331 -1331 
Q 1025 -1281 716 -1178 
L 716 -306 
Q 1009 -475 1290 -558 
Q 1572 -641 1856 -641 
Q 2406 -641 2662 -400 
Q 2919 -159 2919 353 
L 2919 594 
z
M 2181 2772 
Q 1834 2772 1640 2515 
Q 1447 2259 1447 1791 
Q 1447 1309 1634 1061 
Q 1822 813 2181 813 
Q 2531 813 2725 1069 
Q 2919 1325 2919 1791 
Q 2919 2259 2725 2515 
Q 2531 2772 2181 2772 
z
" transform="scale(0.015625)"/>
      <path id="DejaVuSans-Bold-44" d="M 2106 1575 
Q 1756 1575 1579 1456 
Q 1403 1338 1403 1106 
Q 1403 894 1545 773 
Q 1688 653 1941 653 
Q 2256 653 2472 879 
Q 2688 1106 2688 1447 
L 2688 1575 
L 2106 1575 
z
M 3816 1997 
L 3816 0 
L 2688 0 
L 2688 519 
Q 2463 200 2181 54 
Q 1900 -91 1497 -91 
Q 953 -91 614 226 
Q 275 544 275 1050 
Q 275 1666 698 1953 
Q 1122 2241 2028 2241 
L 2688 2241 
L 2688 2328 
Q 2688 2594 2478 2717 
Q 2269 2841 1825 2841 
Q 1466 2841 1156 2769 
Q 847 2697 581 2553 
L 581 3406 
Q 941 3494 1303 3539 
Q 1666 3584 2028 3584 
Q 2975 3584 3395 3211 
Q 3816 2838 3816 1997 
z
" transform="scale(0.015625)"/>
     </defs>
     <use xlink:href="#DejaVuSans-Bold-27"/>
     <use xlink:href="#DejaVuSans-Bold-48" transform="translate(83.015625 0)"/>
     <use xlink:href="#DejaVuSans-Bold-57" transform="translate(150.84375 0)"/>
     <use xlink:href="#DejaVuSans-Bold-48" transform="translate(198.640625 0)"/>
     <use xlink:href="#DejaVuSans-Bold-55" transform="translate(266.46875 0)"/>
     <use xlink:href="#DejaVuSans-Bold-50" transform="translate(315.78125 0)"/>
     <use xlink:href="#DejaVuSans-Bold-4c" transform="translate(419.984375 0)"/>
     <use xlink:href="#DejaVuSans-Bold-51" transform="translate(454.265625 0)"/>
     <use xlink:href="#DejaVuSans-Bold-4c" transform="translate(525.453125 0)"/>
     <use xlink:href="#DejaVuSans-Bold-56" transform="translate(559.734375 0)"/>
     <use xlink:href="#DejaVuSans-Bold-50" transform="translate(619.25 0)"/>
     <use xlink:href="#DejaVuSans-Bold-3" transform="translate(723.453125 0)"/>
     <use xlink:href="#DejaVuSans-Bold-4a" transform="translate(758.265625 0)"/>
     <use xlink:href="#DejaVuSans-Bold-58" transform="translate(829.84375 0)"/>
     <use xlink:href="#DejaVuSans-Bold-44" transform="translate(901.03125 0)"/>
     <use xlink:href="#DejaVuSans-Bold-55" transform="translate(968.515625 0)"/>
     <use xlink:href="#DejaVuSans-Bold-44" transform="translate(1017.828125 0)"/>
     <use xlink:href="#DejaVuSans-Bold-51" transform="translate(1085.3125 0)"/>
     <use xlink:href="#DejaVuSans-Bold-57" transform="translate(1156.5 0)"/>
     <use xlink:href="#DejaVuSans-Bold-48" transform="translate(1204.296875 0)"/>
     <use xlink:href="#DejaVuSans-Bold-48" transform="translate(1272.125 0)"/>
    </g>
   </g>
   <g id="text_13">
    <!-- Both anchors ($t_{\mathrm{disclosure}}$, $t_{\mathrm{connect}}$) are required ATR-01 fields. -->
    <g style="fill: #f8fafc" transform="translate(154.7 359.070828) scale(0.1 -0.1)">
     <defs>
      <path id="DejaVuSans-25" d="M 1259 2228 
L 1259 519 
L 2272 519 
Q 2781 519 3026 730 
Q 3272 941 3272 1375 
Q 3272 1813 3026 2020 
Q 2781 2228 2272 2228 
L 1259 2228 
z
M 1259 4147 
L 1259 2741 
L 2194 2741 
Q 2656 2741 2882 2914 
Q 3109 3088 3109 3444 
Q 3109 3797 2882 3972 
Q 2656 4147 2194 4147 
L 1259 4147 
z
M 628 4666 
L 2241 4666 
Q 2963 4666 3353 4366 
Q 3744 4066 3744 3513 
Q 3744 3084 3544 2831 
Q 3344 2578 2956 2516 
Q 3422 2416 3680 2098 
Q 3938 1781 3938 1306 
Q 3938 681 3513 340 
Q 3088 0 2303 0 
L 628 0 
L 628 4666 
z
" transform="scale(0.015625)"/>
      <path id="DejaVuSans-54" d="M 947 1747 
Q 947 1113 1208 752 
Q 1469 391 1925 391 
Q 2381 391 2643 752 
Q 2906 1113 2906 1747 
Q 2906 2381 2643 2742 
Q 2381 3103 1925 3103 
Q 1469 3103 1208 2742 
Q 947 2381 947 1747 
z
M 2906 525 
Q 2725 213 2448 61 
Q 2172 -91 1784 -91 
Q 1150 -91 751 415 
Q 353 922 353 1747 
Q 353 2572 751 3078 
Q 1150 3584 1784 3584 
Q 2172 3584 2448 3432 
Q 2725 3281 2906 2969 
L 2906 3500 
L 3481 3500 
L 3481 -1331 
L 2906 -1331 
L 2906 525 
z
" transform="scale(0.015625)"/>
      <path id="DejaVuSans-24" d="M 2188 4044 
L 1331 1722 
L 3047 1722 
L 2188 4044 
z
M 1831 4666 
L 2547 4666 
L 4325 0 
L 3669 0 
L 3244 1197 
L 1141 1197 
L 716 0 
L 50 0 
L 1831 4666 
z
" transform="scale(0.015625)"/>
      <path id="DejaVuSans-37" d="M -19 4666 
L 3928 4666 
L 3928 4134 
L 2272 4134 
L 2272 0 
L 1638 0 
L 1638 4134 
L -19 4134 
L -19 4666 
z
" transform="scale(0.015625)"/>
      <path id="DejaVuSans-35" d="M 2841 2188 
Q 3044 2119 3236 1894 
Q 3428 1669 3622 1275 
L 4263 0 
L 3584 0 
L 2988 1197 
Q 2756 1666 2539 1819 
Q 2322 1972 1947 1972 
L 1259 1972 
L 1259 0 
L 628 0 
L 628 4666 
L 2053 4666 
Q 2853 4666 3247 4331 
Q 3641 3997 3641 3322 
Q 3641 2881 3436 2590 
Q 3231 2300 2841 2188 
z
M 1259 4147 
L 1259 2491 
L 2053 2491 
Q 2509 2491 2742 2702 
Q 2975 2913 2975 3322 
Q 2975 3731 2742 3939 
Q 2509 4147 2053 4147 
L 1259 4147 
z
" transform="scale(0.015625)"/>
      <path id="DejaVuSans-11" d="M 684 794 
L 1344 794 
L 1344 0 
L 684 0 
L 684 794 
z
" transform="scale(0.015625)"/>
     </defs>
     <use xlink:href="#DejaVuSans-25" transform="translate(0 0.015625)"/>
     <use xlink:href="#DejaVuSans-52" transform="translate(68.603516 0.015625)"/>
     <use xlink:href="#DejaVuSans-57" transform="translate(129.785156 0.015625)"/>
     <use xlink:href="#DejaVuSans-4b" transform="translate(168.994141 0.015625)"/>
     <use xlink:href="#DejaVuSans-3" transform="translate(232.373047 0.015625)"/>
     <use xlink:href="#DejaVuSans-44" transform="translate(264.160156 0.015625)"/>
     <use xlink:href="#DejaVuSans-51" transform="translate(325.439453 0.015625)"/>
     <use xlink:href="#DejaVuSans-46" transform="translate(388.818359 0.015625)"/>
     <use xlink:href="#DejaVuSans-4b" transform="translate(443.798828 0.015625)"/>
     <use xlink:href="#DejaVuSans-52" transform="translate(507.177734 0.015625)"/>
     <use xlink:href="#DejaVuSans-55" transform="translate(568.359375 0.015625)"/>
     <use xlink:href="#DejaVuSans-56" transform="translate(609.472656 0.015625)"/>
     <use xlink:href="#DejaVuSans-3" transform="translate(661.572266 0.015625)"/>
     <use xlink:href="#DejaVuSans-b" transform="translate(693.359375 0.015625)"/>
     <use xlink:href="#DejaVuSans-Oblique-57" transform="translate(732.373047 0.015625)"/>
     <use xlink:href="#DejaVuSans-47" transform="translate(771.582031 -14.984326) scale(0.7)"/>
     <use xlink:href="#DejaVuSans-4c" transform="translate(816.015625 -14.984326) scale(0.7)"/>
     <use xlink:href="#DejaVuSans-56" transform="translate(835.463867 -14.984326) scale(0.7)"/>
     <use xlink:href="#DejaVuSans-46" transform="translate(871.933594 -14.984326) scale(0.7)"/>
     <use xlink:href="#DejaVuSans-4f" transform="translate(910.419922 -14.984326) scale(0.7)"/>
     <use xlink:href="#DejaVuSans-52" transform="translate(929.868164 -14.984326) scale(0.7)"/>
     <use xlink:href="#DejaVuSans-56" transform="translate(972.695312 -14.984326) scale(0.7)"/>
     <use xlink:href="#DejaVuSans-58" transform="translate(1009.165039 -14.984326) scale(0.7)"/>
     <use xlink:href="#DejaVuSans-55" transform="translate(1053.530273 -14.984326) scale(0.7)"/>
     <use xlink:href="#DejaVuSans-48" transform="translate(1080.90957 -14.984326) scale(0.7)"/>
     <use xlink:href="#DejaVuSans-f" transform="translate(1126.710352 0.015625)"/>
     <use xlink:href="#DejaVuSans-3" transform="translate(1158.497461 0.015625)"/>
     <use xlink:href="#DejaVuSans-Oblique-57" transform="translate(1190.28457 0.015625)"/>
     <use xlink:href="#DejaVuSans-46" transform="translate(1229.493555 -14.984326) scale(0.7)"/>
     <use xlink:href="#DejaVuSans-52" transform="translate(1267.979883 -14.984326) scale(0.7)"/>
     <use xlink:href="#DejaVuSans-51" transform="translate(1310.807031 -14.984326) scale(0.7)"/>
     <use xlink:href="#DejaVuSans-51" transform="translate(1355.172266 -14.984326) scale(0.7)"/>
     <use xlink:href="#DejaVuSans-48" transform="translate(1399.5375 -14.984326) scale(0.7)"/>
     <use xlink:href="#DejaVuSans-46" transform="translate(1442.603906 -14.984326) scale(0.7)"/>
     <use xlink:href="#DejaVuSans-57" transform="translate(1481.090234 -14.984326) scale(0.7)"/>
     <use xlink:href="#DejaVuSans-c" transform="translate(1511.270898 0.015625)"/>
     <use xlink:href="#DejaVuSans-3" transform="translate(1550.28457 0.015625)"/>
     <use xlink:href="#DejaVuSans-44" transform="translate(1582.07168 0.015625)"/>
     <use xlink:href="#DejaVuSans-55" transform="translate(1643.350977 0.015625)"/>
     <use xlink:href="#DejaVuSans-48" transform="translate(1682.464258 0.015625)"/>
     <use xlink:href="#DejaVuSans-3" transform="translate(1743.987695 0.015625)"/>
     <use xlink:href="#DejaVuSans-55" transform="translate(1775.774805 0.015625)"/>
     <use xlink:href="#DejaVuSans-48" transform="translate(1814.888086 0.015625)"/>
     <use xlink:href="#DejaVuSans-54" transform="translate(1876.411523 0.015625)"/>
     <use xlink:href="#DejaVuSans-58" transform="translate(1939.888086 0.015625)"/>
     <use xlink:href="#DejaVuSans-4c" transform="translate(2003.266992 0.015625)"/>
     <use xlink:href="#DejaVuSans-55" transform="translate(2031.050195 0.015625)"/>
     <use xlink:href="#DejaVuSans-48" transform="translate(2070.163477 0.015625)"/>
     <use xlink:href="#DejaVuSans-47" transform="translate(2131.686914 0.015625)"/>
     <use xlink:href="#DejaVuSans-3" transform="translate(2195.163477 0.015625)"/>
     <use xlink:href="#DejaVuSans-24" transform="translate(2226.950586 0.015625)"/>
     <use xlink:href="#DejaVuSans-37" transform="translate(2287.358789 0.015625)"/>
     <use xlink:href="#DejaVuSans-35" transform="translate(2348.442773 0.015625)"/>
     <use xlink:href="#DejaVuSans-10" transform="translate(2413.925195 0.015625)"/>
     <use xlink:href="#DejaVuSans-13" transform="translate(2450.00918 0.015625)"/>
     <use xlink:href="#DejaVuSans-14" transform="translate(2513.632227 0.015625)"/>
     <use xlink:href="#DejaVuSans-3" transform="translate(2577.255273 0.015625)"/>
     <use xlink:href="#DejaVuSans-49" transform="translate(2609.042383 0.015625)"/>
     <use xlink:href="#DejaVuSans-4c" transform="translate(2644.247461 0.015625)"/>
     <use xlink:href="#DejaVuSans-48" transform="translate(2672.030664 0.015625)"/>
     <use xlink:href="#DejaVuSans-4f" transform="translate(2733.554102 0.015625)"/>
     <use xlink:href="#DejaVuSans-47" transform="translate(2761.337305 0.015625)"/>
     <use xlink:href="#DejaVuSans-56" transform="translate(2824.813867 0.015625)"/>
     <use xlink:href="#DejaVuSans-11" transform="translate(2876.913477 0.015625)"/>
    </g>
   </g>
   <g id="text_14">
    <!-- IL is computable from any conformant audit trail with no human judgment. -->
    <g style="fill: #f8fafc" transform="translate(112.613281 381.246047) scale(0.1 -0.1)">
     <defs>
      <path id="DejaVuSans-5c" d="M 2059 -325 
Q 1816 -950 1584 -1140 
Q 1353 -1331 966 -1331 
L 506 -1331 
L 506 -850 
L 844 -850 
Q 1081 -850 1212 -737 
Q 1344 -625 1503 -206 
L 1606 56 
L 191 3500 
L 800 3500 
L 1894 763 
L 2988 3500 
L 3597 3500 
L 2059 -325 
z
" transform="scale(0.015625)"/>
      <path id="DejaVuSans-4d" d="M 603 3500 
L 1178 3500 
L 1178 -63 
Q 1178 -731 923 -1031 
Q 669 -1331 103 -1331 
L -116 -1331 
L -116 -844 
L 38 -844 
Q 366 -844 484 -692 
Q 603 -541 603 -63 
L 603 3500 
z
M 603 4863 
L 1178 4863 
L 1178 4134 
L 603 4134 
L 603 4863 
z
" transform="scale(0.015625)"/>
     </defs>
     <use xlink:href="#DejaVuSans-2c"/>
     <use xlink:href="#DejaVuSans-2f" transform="translate(29.5 0)"/>
     <use xlink:href="#DejaVuSans-3" transform="translate(85.21875 0)"/>
     <use xlink:href="#DejaVuSans-4c" transform="translate(117 0)"/>
     <use xlink:href="#DejaVuSans-56" transform="translate(144.78125 0)"/>
     <use xlink:href="#DejaVuSans-3" transform="translate(196.875 0)"/>
     <use xlink:href="#DejaVuSans-46" transform="translate(228.65625 0)"/>
     <use xlink:href="#DejaVuSans-52" transform="translate(283.640625 0)"/>
     <use xlink:href="#DejaVuSans-50" transform="translate(344.828125 0)"/>
     <use xlink:href="#DejaVuSans-53" transform="translate(442.234375 0)"/>
     <use xlink:href="#DejaVuSans-58" transform="translate(505.71875 0)"/>
     <use xlink:href="#DejaVuSans-57" transform="translate(569.09375 0)"/>
     <use xlink:href="#DejaVuSans-44" transform="translate(608.296875 0)"/>
     <use xlink:href="#DejaVuSans-45" transform="translate(669.578125 0)"/>
     <use xlink:href="#DejaVuSans-4f" transform="translate(733.0625 0)"/>
     <use xlink:href="#DejaVuSans-48" transform="translate(760.84375 0)"/>
     <use xlink:href="#DejaVuSans-3" transform="translate(822.375 0)"/>
     <use xlink:href="#DejaVuSans-49" transform="translate(854.15625 0)"/>
     <use xlink:href="#DejaVuSans-55" transform="translate(889.359375 0)"/>
     <use xlink:href="#DejaVuSans-52" transform="translate(928.265625 0)"/>
     <use xlink:href="#DejaVuSans-50" transform="translate(989.453125 0)"/>
     <use xlink:href="#DejaVuSans-3" transform="translate(1086.859375 0)"/>
     <use xlink:href="#DejaVuSans-44" transform="translate(1118.640625 0)"/>
     <use xlink:href="#DejaVuSans-51" transform="translate(1179.921875 0)"/>
     <use xlink:href="#DejaVuSans-5c" transform="translate(1243.296875 0)"/>
     <use xlink:href="#DejaVuSans-3" transform="translate(1302.484375 0)"/>
     <use xlink:href="#DejaVuSans-46" transform="translate(1334.265625 0)"/>
     <use xlink:href="#DejaVuSans-52" transform="translate(1389.25 0)"/>
     <use xlink:href="#DejaVuSans-51" transform="translate(1450.4375 0)"/>
     <use xlink:href="#DejaVuSans-49" transform="translate(1513.8125 0)"/>
     <use xlink:href="#DejaVuSans-52" transform="translate(1549.015625 0)"/>
     <use xlink:href="#DejaVuSans-55" transform="translate(1610.203125 0)"/>
     <use xlink:href="#DejaVuSans-50" transform="translate(1649.5625 0)"/>
     <use xlink:href="#DejaVuSans-44" transform="translate(1746.96875 0)"/>
     <use xlink:href="#DejaVuSans-51" transform="translate(1808.25 0)"/>
     <use xlink:href="#DejaVuSans-57" transform="translate(1871.625 0)"/>
     <use xlink:href="#DejaVuSans-3" transform="translate(1910.828125 0)"/>
     <use xlink:href="#DejaVuSans-44" transform="translate(1942.609375 0)"/>
     <use xlink:href="#DejaVuSans-58" transform="translate(2003.890625 0)"/>
     <use xlink:href="#DejaVuSans-47" transform="translate(2067.265625 0)"/>
     <use xlink:href="#DejaVuSans-4c" transform="translate(2130.75 0)"/>
     <use xlink:href="#DejaVuSans-57" transform="translate(2158.53125 0)"/>
     <use xlink:href="#DejaVuSans-3" transform="translate(2197.734375 0)"/>
     <use xlink:href="#DejaVuSans-57" transform="translate(2229.515625 0)"/>
     <use xlink:href="#DejaVuSans-55" transform="translate(2268.71875 0)"/>
     <use xlink:href="#DejaVuSans-44" transform="translate(2309.828125 0)"/>
     <use xlink:href="#DejaVuSans-4c" transform="translate(2371.109375 0)"/>
     <use xlink:href="#DejaVuSans-4f" transform="translate(2398.890625 0)"/>
     <use xlink:href="#DejaVuSans-3" transform="translate(2426.671875 0)"/>
     <use xlink:href="#DejaVuSans-5a" transform="translate(2458.453125 0)"/>
     <use xlink:href="#DejaVuSans-4c" transform="translate(2540.234375 0)"/>
     <use xlink:href="#DejaVuSans-57" transform="translate(2568.015625 0)"/>
     <use xlink:href="#DejaVuSans-4b" transform="translate(2607.21875 0)"/>
     <use xlink:href="#DejaVuSans-3" transform="translate(2670.59375 0)"/>
     <use xlink:href="#DejaVuSans-51" transform="translate(2702.375 0)"/>
     <use xlink:href="#DejaVuSans-52" transform="translate(2765.75 0)"/>
     <use xlink:href="#DejaVuSans-3" transform="translate(2826.9375 0)"/>
     <use xlink:href="#DejaVuSans-4b" transform="translate(2858.71875 0)"/>
     <use xlink:href="#DejaVuSans-58" transform="translate(2922.09375 0)"/>
     <use xlink:href="#DejaVuSans-50" transform="translate(2985.46875 0)"/>
     <use xlink:href="#DejaVuSans-44" transform="translate(3082.875 0)"/>
     <use xlink:href="#DejaVuSans-51" transform="translate(3144.15625 0)"/>
     <use xlink:href="#DejaVuSans-3" transform="translate(3207.53125 0)"/>
     <use xlink:href="#DejaVuSans-4d" transform="translate(3239.3125 0)"/>
     <use xlink:href="#DejaVuSans-58" transform="translate(3267.09375 0)"/>
     <use xlink:href="#DejaVuSans-47" transform="translate(3330.46875 0)"/>
     <use xlink:href="#DejaVuSans-4a" transform="translate(3393.953125 0)"/>
     <use xlink:href="#DejaVuSans-50" transform="translate(3457.4375 0)"/>
     <use xlink:href="#DejaVuSans-48" transform="translate(3554.84375 0)"/>
     <use xlink:href="#DejaVuSans-51" transform="translate(3616.375 0)"/>
     <use xlink:href="#DejaVuSans-57" transform="translate(3679.75 0)"/>
     <use xlink:href="#DejaVuSans-11" transform="translate(3718.953125 0)"/>
    </g>
   </g>
  </g>
 </g>
 <defs>
  <clipPath id="p66d8789649">
   <rect x="7.2" y="7.2" width="585.9" height="399.168"/>
  </clipPath>
 </defs>
</svg>
